<?xml version="1.0" encoding="UTF-8" standalone="no"?>
<!-- Generator: Adobe Illustrator 16.0.3, SVG Export Plug-In . SVG Version: 6.00 Build 0)  -->

<svg
   version="1.1"
   id="Capa_1"
   inkscape:version="1.2.2 (732a01da63, 2022-12-09)"
   sodipodi:docname="example_3_cajita_6_6.svg"
   x="0px"
   y="0px"
   width="1133.858px"
   height="1133.858px"
   viewBox="-1500.359 766.5 1133.858 1133.858"
   enable-background="new -1500.359 766.5 1133.858 1133.858"
   xml:space="preserve"
   xmlns:inkscape="http://www.inkscape.org/namespaces/inkscape"
   xmlns:sodipodi="http://sodipodi.sourceforge.net/DTD/sodipodi-0.dtd"
   xmlns="http://www.w3.org/2000/svg"
   xmlns:svg="http://www.w3.org/2000/svg"
   xmlns:ns="&amp;ns_sfw;"><defs
   id="defs632"><inkscape:path-effect
     effect="offset"
     id="path-effect5494"
     is_visible="true"
     lpeversion="1.2"
     linejoin_type="round"
     unit="mm"
     offset="0.9"
     miter_limit="4.4"
     attempt_force_join="true"
     update_on_knot_move="true" /><inkscape:path-effect
     effect="interpolate_points"
     id="path-effect5492"
     is_visible="true"
     lpeversion="1"
     interpolator_type="Linear" /><inkscape:path-effect
     effect="bend_path"
     id="path-effect5490"
     is_visible="true"
     lpeversion="1"
     bendpath="m -1252.7711,1783.3656 h 205.9832"
     prop_scale="0.99"
     scale_y_rel="false"
     vertical="false"
     hide_knot="false" /><inkscape:path-effect
     effect="bspline"
     id="path-effect5488"
     is_visible="true"
     lpeversion="1"
     weight="2.4"
     steps="1"
     helper_size="2"
     apply_no_weight="true"
     apply_with_weight="true"
     only_selected="false" /><inkscape:path-effect
     effect="bspline"
     id="path-effect5486"
     is_visible="true"
     lpeversion="1"
     weight="33.2333"
     steps="1"
     helper_size="0"
     apply_no_weight="true"
     apply_with_weight="true"
     only_selected="false" /><inkscape:path-effect
     effect="bounding_box"
     id="path-effect5484"
     is_visible="true"
     lpeversion="1"
     linkedpath=""
     visualbounds="false" /><inkscape:path-effect
     effect="fillet_chamfer"
     id="path-effect5482"
     is_visible="true"
     lpeversion="1"
     nodesatellites_param="F,0,0,1,0,0.018906,0,2 @ F,0,0,1,0,0.018868,0,2 @ F,0,0,1,0,0.15125,0,2 @ F,0,0,1,0,0.600038,0,2 @ F,0,0,1,0,0.15125,0,2 @ F,0,0,1,0,0.018868,0,2 @ F,0,0,1,0,0.018868,0,2 @ F,0,0,1,0,0.7866,0,2 @ F,0,0,1,0,0.018868,0,2 @ F,0,0,1,0,0.018868,0,2 @ F,0,0,1,0,0.744102,0,2 @ F,0,0,1,0,0.018868,0,2 @ F,0,0,1,0,0.018906,0,2 @ F,0,0,1,0,0.15121,0,2 @ F,0,0,1,0,0.6,0,2 @ F,0,0,1,0,0.15121,0,2 @ F,0,0,1,0,0.018906,0,2 @ F,0,0,1,0,0.018868,0,2 @ F,0,0,1,0,0.744022,0,2 @ F,0,0,1,0,0.018868,0,2 @ F,0,0,1,0,0.018908,0,2 @ F,0,0,1,0,3.319882,0,2 @ F,0,0,1,0,0.174218,0,2 @ F,0,0,1,0,0.016562,0,2 @ F,0,0,1,0,0.018828,0,2 @ F,0,0,1,0,0.018809156,0,2 @ F,0,0,1,0,0.051289797,0,2 @ F,0,0,1,0,0.01885767,0,2 @ F,0,0,1,0,0.018852909,0,2 @ F,0,0,1,0,0.065285694,0,2 @ F,0,0,1,0,0.0188833,0,2 @ F,0,0,1,0,0.018850132,0,2 @ F,0,0,1,0,0.065308056,0,2 @ F,0,0,1,0,0.018852909,0,2 @ F,0,0,1,0,0.01885767,0,2 @ F,0,0,1,0,0.0513002,0,2 @ F,0,0,1,0,0.018894355,0,2 @ F,0,0,1,0,0.018866,0,2 @ F,0,0,1,0,0.016602,0,2 @ F,0,0,1,0,0.40293,0,2 @ F,0,0,1,0,0.016484,0,2 @ F,0,0,1,0,0.018946,0,2 @ F,0,0,1,0,0.018971604,0,2 @ F,0,0,1,0,0.051302131,0,2 @ F,0,0,1,0,0.018894355,0,2 @ F,0,0,1,0,0.0188833,0,2 @ F,0,0,1,0,0.065318869,0,2 @ F,0,0,1,0,0.018991576,0,2 @ F,0,0,1,0,0.018970344,0,2 @ F,0,0,1,0,0.065265008,0,2 @ F,0,0,1,0,0.018828899,0,2 @ F,0,0,1,0,0.018855739,0,2 @ F,0,0,1,0,0.051283895,0,2 @ F,0,0,1,0,0.018743785,0,2 @ F,0,0,1,0,0.01875,0,2 @ F,0,0,1,0,0.016562,0,2 @ F,0,0,1,0,0.937148,0,2 @ F,0,0,1,0,0.018866,0,2 @ F,0,0,1,0,0.018906,0,2 @ F,0,0,1,0,0.15125,0,2 @ F,0,0,1,0,0.6,0,2 @ F,0,0,1,0,0.15125,0,2 @ F,0,0,1,0,0.018868,0,2 @ F,0,0,1,0,0.018866,0,2 @ F,0,0,1,0,0.744102,0,2 @ F,0,0,1,0,0.018828,0,2 @ F,0,0,1,0,0.018906,0,2 @ F,0,0,1,0,0.914218,0,2 @ F,0,0,1,0,0.018868,0,2 @ F,0,0,1,0,0.018946,0,2 @ F,0,0,1,0,0.15125,0,2 @ F,0,0,1,0,0.600078,0,2 @ F,0,0,1,0,0.15125,0,2 @ F,0,0,1,0,0.018906,0,2 @ F,0,0,1,0,0.018906,0,2 @ F,0,0,1,0,1.10543,0,2 | F,0,0,1,0,1.067618,0,2 @ F,0,0,1,0,0.15125,0,2 @ F,0,0,1,0,0.018866,0,2 @ F,0,0,1,0,0.018906,0,2 @ F,0,0,1,0,0.63793,0,2 @ F,0,0,1,0,0.018906,0,2 @ F,0,0,1,0,0.018868,0,2 @ F,0,0,1,0,0.151212,0,2 @ F,0,0,1,0,0.876406,0,2 @ F,0,0,1,0,0.70629,0,2 @ F,0,0,1,0,0.151134,0,2 @ F,0,0,1,0,0.018868,0,2 @ F,0,0,1,0,0.018944,0,2 @ F,0,0,1,0,0.637812,0,2 @ F,0,0,1,0,0.018944,0,2 @ F,0,0,1,0,0.018906,0,2 @ F,0,0,1,0,0.151134,0,2 @ F,0,0,1,0,0.918242,0,2 @ F,0,0,1,0,0.014024,0,2 @ F,0,0,1,0,0.045654769,0,2 @ F,0,0,1,0,0.058535362,0,2 @ F,0,0,1,0,0.058396693,0,2 @ F,0,0,1,0,0.045597198,0,2 @ F,0,0,1,0,0.014062,0,2 @ F,0,0,1,0,0.40293,0,2 @ F,0,0,1,0,0.01414,0,2 @ F,0,0,1,0,0.045558579,0,2 @ F,0,0,1,0,0.058504963,0,2 @ F,0,0,1,0,0.058471797,0,2 @ F,0,0,1,0,0.045709206,0,2 @ F,0,0,1,0,0.013946,0,2 @ F,0,0,1,0,0.193126,0,2 @ F,0,0,1,0,0.018868,0,2 @ F,0,0,1,0,0.018866,0,2 @ F,0,0,1,0,3.319844,0,2 @ F,0,0,1,0,0.70625,0,2 @ F,0,0,1,0,0.151134,0,2 @ F,0,0,1,0,0.018906,0,2 @ F,0,0,1,0,0.018906,0,2 @ F,0,0,1,0,0.637774,0,2 @ F,0,0,1,0,0.018906,0,2 @ F,0,0,1,0,0.018906,0,2 @ F,0,0,1,0,0.151134,0,2 @ F,0,0,1,0,0.70629,0,2 @ F,0,0,1,0,0.74875,0,2 @ F,0,0,1,0,0.151212,0,2 @ F,0,0,1,0,0.018868,0,2 @ F,0,0,1,0,0.018906,0,2 @ F,0,0,1,0,0.637812,0,2 @ F,0,0,1,0,0.018906,0,2 @ F,0,0,1,0,0.018906,0,2 @ F,0,0,1,0,0.15125,0,2 | F,0,0,1,0,0.018946,0,2 @ F,0,0,1,0,0.018981498,0,2 @ F,0,0,1,0,0.035735094,0,2 @ F,0,0,1,0,0.018894355,0,2 @ F,0,0,1,0,0.018862104,0,2 @ F,0,0,1,0,0.045340512,0,2 @ F,0,0,1,0,0.018905668,0,2 @ F,0,0,1,0,0.018917609,0,2 @ F,0,0,1,0,0.045307874,0,2 @ F,0,0,1,0,0.018884417,0,2 @ F,0,0,1,0,0.018884492,0,2 @ F,0,0,1,0,0.035712864,0,2 @ F,0,0,1,0,0.018847787,0,2 @ F,0,0,1,0,0.018828,0,2 @ F,0,0,1,0,0.011446,0,2 @ F,0,0,1,0,0.0116,0,2 @ F,0,0,1,0,0.018866,0,2 @ F,0,0,1,0,0.018884492,0,2 @ F,0,0,1,0,0.035749566,0,2 @ F,0,0,1,0,0.018883974,0,2 @ F,0,0,1,0,0.018850132,0,2 @ F,0,0,1,0,0.045276362,0,2 @ F,0,0,1,0,0.018884417,0,2 @ F,0,0,1,0,0.018905668,0,2 @ F,0,0,1,0,0.045340512,0,2 @ F,0,0,1,0,0.018830559,0,2 @ F,0,0,1,0,0.018847269,0,2 @ F,0,0,1,0,0.035712864,0,2 @ F,0,0,1,0,0.018969673,0,2 @ F,0,0,1,0,0.018984,0,2 @ F,0,0,1,0,0.011562,0,2 @ F,0,0,1,0,0.011406,0,2 @ F,0,0,1,0,0.018984,0,2 @ F,0,0,1,0,0.018969673,0,2 @ F,0,0,1,0,0.035712864,0,2 @ F,0,0,1,0,0.018894355,0,2 @ F,0,0,1,0,0.018905668,0,2 @ F,0,0,1,0,0.045308991,0,2 @ F,0,0,1,0,0.018904548,0,2 @ F,0,0,1,0,0.018915949,0,2 @ F,0,0,1,0,0.045264344,0,2 @ F,0,0,1,0,0.018915949,0,2 @ F,0,0,1,0,0.018941485,0,2 @ F,0,0,1,0,0.035771775,0,2 @ F,0,0,1,0,0.018819059,0,2 @ F,0,0,1,0,0.01879,0,2 @ F,0,0,1,0,0.0116,0,2 @ F,0,0,1,0,0.011446,0,2 @ F,0,0,1,0,0.018984,0,2 @ F,0,0,1,0,0.018980091,0,2 @ F,0,0,1,0,0.035733163,0,2 @ F,0,0,1,0,0.018819059,0,2 @ F,0,0,1,0,0.018828899,0,2 @ F,0,0,1,0,0.045231142,0,2 @ F,0,0,1,0,0.018893673,0,2 @ F,0,0,1,0,0.018904548,0,2 @ F,0,0,1,0,0.045308991,0,2 @ F,0,0,1,0,0.018938823,0,2 @ F,0,0,1,0,0.018943415,0,2 @ F,0,0,1,0,0.035733163,0,2 @ F,0,0,1,0,0.018982021,0,2 @ F,0,0,1,0,0.018946,0,2 @ F,0,0,1,0,0.011406,0,2 @ F,0,0,1,0,0.011562,0,2 | F,0,0,1,0,0.009102,0,2 @ F,0,0,1,0,0.008946,0,2 @ F,0,0,1,0,0.029991556,0,2 @ F,0,0,1,0,0.038612524,0,2 @ F,0,0,1,0,0.038342174,0,2 @ F,0,0,1,0,0.030225946,0,2 @ F,0,0,1,0,0.00883,0,2 @ F,0,0,1,0,0.0091,0,2 @ F,0,0,1,0,0.030105979,0,2 @ F,0,0,1,0,0.038449298,0,2 @ F,0,0,1,0,0.038471621,0,2 @ F,0,0,1,0,0.030009868,0,2 @ F,0,0,1,0,0.008984,0,2 @ F,0,0,1,0,0.00914,0,2 @ F,0,0,1,0,0.030007936,0,2 @ F,0,0,1,0,0.038440104,0,2 @ F,0,0,1,0,0.038526025,0,2 @ F,0,0,1,0,0.03009416,0,2 @ F,0,0,1,0,0.009062,0,2 @ F,0,0,1,0,0.008868,0,2 @ F,0,0,1,0,0.03021798,0,2 @ F,0,0,1,0,0.038385698,0,2 @ F,0,0,1,0,0.038558665,0,2 @ F,0,0,1,0,0.029989625,0,2"
     unit="mm"
     method="arc"
     mode="F"
     radius="2"
     chamfer_steps="2"
     flexible="false"
     use_knot_distance="false"
     apply_no_radius="false"
     apply_with_radius="false"
     only_selected="false"
     hide_knots="false" /><inkscape:path-effect
     effect="bspline"
     id="path-effect5480"
     is_visible="true"
     lpeversion="1"
     weight="33.333333"
     steps="2"
     helper_size="0"
     apply_no_weight="true"
     apply_with_weight="true"
     only_selected="false" /><inkscape:path-effect
     effect="fill_between_many"
     method="originald"
     linkedpaths="#path3957,0,1|"
     id="path-effect5476" /><inkscape:path-effect
     effect="fill_between_many"
     method="originald"
     linkedpaths="#path3957,0,1|"
     id="path-effect5505" /></defs>
<metadata
   id="metadata182">
	<ns:sfw>
		<ns:slices />
		<ns:sliceSourceBounds
   y="-1065.801"
   x="-1086.23"
   width="404.499"
   height="570.483"
   bottomLeftOrigin="true" />
	</ns:sfw>
</metadata>
<sodipodi:namedview
   id="namedview228"
   inkscape:current-layer="Capa_1"
   inkscape:window-y="-8"
   inkscape:window-x="2296"
   inkscape:window-height="1017"
   inkscape:window-width="1920"
   inkscape:deskcolor="#505050"
   inkscape:pageopacity="0"
   inkscape:showpageshadow="0"
   inkscape:pagecheckerboard="0"
   bordercolor="#eeeeee"
   inkscape:cy="864.46815"
   pagecolor="#505050"
   inkscape:cx="325.14196"
   inkscape:zoom="3.4923207"
   showgrid="false"
   borderopacity="1"
   inkscape:window-maximized="1">
	</sodipodi:namedview>



























<path
   id="path239"
   style="fill:#000000;opacity:1;stroke:#000000;stroke-opacity:1;stroke-width:1.88976378;stroke-dasharray:none"
   d="m -1294.281,1673.346 h 30.828 m 8.501,-37.204 v -31.89 m 0,31.885 h -2.127 m -156.261,37.209 v -6.381 m -37.199,-62.714 h 6.374 m -8.505,31.88 h 2.126 m 69.098,30.834 v 6.381 m -71.217,-37.205 v -31.89 m 2.119,0 h -2.126 m 158.385,62.71 v 6.381 m 37.206,-69.085 h 2.127 m -71.223,69.085 v -6.381 m 31.892,0.018 v -2.126 m -31.892,-0.018 h 31.891 m -149.881,-104.173 h 180.709 m -180.709,112.679 v -37.205 m 0,-31.89 v -43.585 m 30.828,106.318 v -2.126 m -0,-0.018 h 31.895 m 117.989,-60.588 v -43.585 m -117.99,112.68 h 55.271 m 69.094,-69.095 h -6.375 m -180.709,31.89 h -6.374 m 6.374,37.205 h 30.826 m 31.896,-6.363 v -2.126 m 117.987,8.489 v -37.205 m -62.717,30.842 v -2.126 m 62.717,-28.716 h 6.375" />
<path
   fill="none"
   stroke="#000000"
   stroke-width="0.1417"
   d="M-1416.722,1301.154c0.303-0.065,0.507-0.351,0.471-0.658  c0.316-1.591,0.592-3.189,0.826-4.795c0.061-0.25-0.068-0.506-0.305-0.606l-0.242-0.035h-14.756  c-0.23,0.048-0.472-0.016-0.648-0.172l-0.043-0.133c0.447-1.042,0.987-2.043,1.613-2.989c4.125-6.723,8.316-13.396,12.578-20.033  l1.481-2.39c0.452-0.647,0.849-1.333,1.186-2.048c-0.067-1.557-0.271-3.104-0.608-4.623c-0.123-0.388-0.514-0.626-0.914-0.554  l-13.59-0.002c-2.84-0.06-5.671-0.13-8.51-0.213l-0.932-0.007c-0.262-0.046-0.522,0.097-0.623,0.343  c-0.053,0.272-0.074,0.55-0.064,0.827l-0.067,0.685c-0.116,0.896-0.259,1.789-0.427,2.677l-0.113,0.805  c-0.054,0.406-0.084,0.815-0.09,1.225c-0.006,0.086,0.027,0.17,0.09,0.229c0.239,0.102,0.504,0.124,0.756,0.063  c1.495-0.124,2.985-0.295,4.47-0.513l1.124-0.078c3.826-0.224,7.66-0.292,11.492-0.205c0.08,0.027,0.149,0.078,0.201,0.146  c-0.366,0.757-0.783,1.487-1.25,2.188c-5.292,8.46-10.641,16.944-15.993,25.37l-0.274,0.466l-0.033,0.073  c-0.065,1.461,0.102,2.923,0.494,4.33c0.115,0.179,0.318,0.28,0.529,0.266h15.558c1.923,0.083,3.845,0.208,5.763,0.375l0.604,0.013  L-1416.722,1301.154z M-1316.323,1301.043c0.104,0.007,0.208-0.025,0.286-0.094c0.079-0.068,0.125-0.166,0.135-0.27v-4.264  c-0.256-0.582-0.59-1.127-0.991-1.619c-2.425-3.384-4.873-6.756-7.341-10.108l-0.727-1.048c-0.534-0.668-0.97-1.409-1.295-2.2  c0.332-0.771,0.77-1.492,1.301-2.143c2.328-3.221,4.688-6.423,7.074-9.601l0.732-1.029c0.492-0.634,0.92-1.313,1.28-2.03  l0.021-0.091v-3.986c0.006-0.21-0.149-0.389-0.357-0.415l-0.279-0.027h-4.595c-0.438,0.349-0.81,0.774-1.095,1.256  c-2.355,3.464-4.688,6.956-6.981,10.46l-0.552,0.79c-0.26,0.425-0.569,0.817-0.922,1.169l-0.035-0.029  c-0.91-1.224-1.762-2.49-2.549-3.796l-2.943-4.542c-1.068-1.73-2.221-3.406-3.453-5.023c-0.119-0.241-0.391-0.371-0.653-0.313  l-4.457,0.028c-0.125-0.042-0.262-0.031-0.378,0.032c-0.115,0.063-0.199,0.172-0.23,0.3v3.986c0.34,0.766,0.775,1.485,1.297,2.142  c2.588,3.635,5.17,7.23,7.785,10.845l0.568,0.836c0.299,0.387,0.544,0.813,0.73,1.265c-0.193,0.423-0.437,0.821-0.727,1.185  c-2.507,3.451-5.039,6.897-7.583,10.321l-0.726,1.041c-0.544,0.674-0.979,1.428-1.291,2.235v4.263  c0.024,0.206,0.197,0.361,0.404,0.363l0.315,0.024h4.374c0.345-0.259,0.633-0.584,0.848-0.958c2.289-3.311,4.498-6.678,6.622-10.096  l0.661-0.995c0.383-0.682,0.85-1.312,1.392-1.875l0.284,0.214l0.187,0.201c2.64,4.067,5.259,8.144,7.862,12.235l0.395,0.558  c0.141,0.29,0.359,0.538,0.629,0.716l0.969,0.014l2.713,0.083C-1317.187,1301.088-1316.753,1301.084-1316.323,1301.043z   M-1266.167,1300.925c0.232-0.028,0.403-0.233,0.389-0.467l0.01-1.279c0.071-3.446,0.154-6.925,0.248-10.37l0.018-1.422  c0.027-0.74-0.15-1.474-0.514-2.118c-1.512-3.48-3.103-6.926-4.771-10.334l-5.73-12.069c-0.1-0.373-0.398-0.661-0.775-0.747h-4.955  c-0.407,0.047-0.74,0.347-0.83,0.747c-2.042,5.031-4.027,10.092-5.951,15.17l-1.379-3.688c-1.428-3.858-2.934-7.687-4.518-11.482  c-0.105-0.401-0.445-0.698-0.858-0.747h-4.983c-0.365,0.095-0.651,0.381-0.746,0.747l-2.589,5.461  c-1.041,2.198-2.069,4.399-3.087,6.608c-1.834,3.763-3.614,7.551-5.341,11.364c-0.081,0.154-0.146,0.316-0.195,0.484  c0.074,4.155,0.166,8.33,0.274,12.484l0.002,1.356c0.113,0.255,0.393,0.395,0.665,0.332c0.931-0.035,1.862-0.089,2.791-0.161  l0.282-0.005c0.995,0.035,1.99,0.089,2.983,0.16l0.31,0.006l0.098-0.026c0.096-0.105,0.142-0.247,0.125-0.389  c-0.092-3.842-0.246-7.683-0.464-11.519l-0.019-0.743c-0.078-0.596-0.055-1.199,0.069-1.786c0.986-2.823,2.161-5.576,3.515-8.243  c1.107-2.481,2.319-4.914,3.633-7.293c0.041-0.092,0.105-0.171,0.186-0.229l0.069,0.09l0.042,0.104l0.463,1.069  c1.801,4.363,3.423,8.798,4.863,13.292c0.236,0.657,0.342,1.354,0.311,2.052c0.013,4.066-0.056,8.133-0.205,12.197l-0.007,0.981  c-0.005,0.211,0.149,0.39,0.358,0.416c1.035,0.003,2.07-0.043,3.102-0.139l0.309,0.005c0.74,0.034,1.479,0.081,2.218,0.141  l0.362,0.015c0.301,0.097,0.63,0.007,0.841-0.229l0.036-0.181c-0.047-2.956-0.109-5.899-0.188-8.854l-0.007-0.918  c-0.045-1.458-0.017-2.918,0.083-4.373c1.564-5.359,3.404-10.636,5.509-15.807c0.029-0.075,0.077-0.142,0.139-0.194l0.068,0.06  c0.726,1.194,1.378,2.432,1.952,3.706c1.928,3.734,3.678,7.559,5.242,11.46c0.345,0.817,0.46,1.715,0.334,2.593  c-0.137,3.424-0.295,6.847-0.473,10.27l-0.021,0.739c-0.01,0.421-0.016,0.843-0.016,1.264c-0.008,0.194,0.134,0.363,0.327,0.389  c1.026,0.03,2.054,0.002,3.077-0.084l0.281,0.005c0.705,0.035,1.408,0.082,2.109,0.141l0.346,0.015  C-1266.556,1300.966-1266.36,1300.957-1266.167,1300.925z M-1381.376,1300.909c0.262-0.132,0.41-0.411,0.375-0.7  c0.04-3.489,0.012-6.979-0.087-10.468c-0.144-0.676-0.44-1.31-0.87-1.852c-1.433-2.171-2.922-4.303-4.469-6.395l-5.952-7.751  c-0.588-0.891-0.829-1.967-0.68-3.023c0.082-2.009,0.19-4.016,0.327-6.021l0.036-0.981c0.036-0.382,0.028-0.768-0.022-1.148  c-0.027-0.264-0.254-0.463-0.52-0.451h-6.588c-0.16-0.042-0.331-0.013-0.465,0.084c-0.135,0.097-0.217,0.249-0.228,0.414  c0.074,2.692,0.173,5.384,0.296,8.073l0.009,0.841c-0.019,0.789-0.302,1.549-0.803,2.159c-2.135,2.791-4.358,5.687-6.505,8.471  l-0.598,0.827c-1.539,2.009-2.886,4.157-4.022,6.418c-0.171,0.35-0.274,0.728-0.308,1.114c0.018,2.709,0.052,5.406,0.104,8.114  c-0.043,0.603-0.027,1.208,0.049,1.808c0.042,0.308,0.313,0.531,0.623,0.515c0.963-0.036,1.926-0.09,2.887-0.161l0.297-0.005  c0.922,0.035,1.843,0.089,2.763,0.16l0.282,0.006c0.275,0.029,0.531-0.15,0.597-0.421c0.048-1.374,0.004-2.75-0.13-4.119  l-0.148-2.152c-0.075-1.034-0.117-2.07-0.125-3.107c0.311-0.988,0.807-1.909,1.46-2.714c2.206-3.079,4.554-6.054,7.038-8.912  l1.063,1.22c2.459,2.727,4.749,5.601,6.855,8.607c0.434,0.538,0.729,1.176,0.857,1.854c-0.071,2.811-0.178,5.621-0.322,8.429  l-0.01,0.872c-0.023,0.189,0.097,0.366,0.28,0.416c1.19,0.001,2.38-0.046,3.567-0.139l0.265,0.005  c0.649,0.035,1.298,0.082,1.946,0.141l0.321,0.015C-1381.743,1300.971-1381.556,1300.956-1381.376,1300.909z M-1347.927,1300.909  c0.261-0.132,0.41-0.411,0.374-0.7c0.04-3.489,0.012-6.979-0.087-10.468c-0.143-0.676-0.439-1.31-0.869-1.852  c-1.433-2.171-2.923-4.303-4.47-6.395l-5.952-7.751c-0.588-0.891-0.829-1.967-0.679-3.023c0.081-2.009,0.19-4.016,0.327-6.021  l0.036-0.981c0.036-0.382,0.028-0.768-0.022-1.148c-0.026-0.265-0.254-0.463-0.52-0.451h-6.588c-0.16-0.042-0.331-0.013-0.465,0.084  c-0.135,0.097-0.217,0.249-0.228,0.414c0.074,2.693,0.173,5.382,0.294,8.073l0.01,0.841c-0.018,0.789-0.301,1.549-0.803,2.159  c-2.134,2.791-4.357,5.687-6.505,8.471l-0.597,0.827c-1.539,2.009-2.887,4.157-4.022,6.418c-0.171,0.35-0.276,0.728-0.308,1.114  c0.016,2.702,0.051,5.413,0.103,8.114c-0.043,0.603-0.026,1.208,0.05,1.808c0.042,0.308,0.313,0.531,0.622,0.515  c0.964-0.036,1.926-0.09,2.887-0.161l0.297-0.005c0.923,0.035,1.843,0.089,2.764,0.16l0.281,0.006  c0.276,0.029,0.532-0.15,0.598-0.421c0.048-1.374,0.004-2.75-0.13-4.119l-0.149-2.152c-0.074-1.034-0.116-2.07-0.124-3.107  c0.311-0.988,0.807-1.909,1.46-2.714c2.206-3.079,4.554-6.053,7.038-8.912l1.063,1.22c2.459,2.727,4.748,5.601,6.855,8.607  c0.434,0.538,0.729,1.176,0.857,1.854c-0.071,2.812-0.179,5.621-0.322,8.429l-0.01,0.872c-0.023,0.189,0.096,0.366,0.279,0.416  c1.191,0.001,2.381-0.046,3.568-0.139l0.264,0.005c0.65,0.035,1.299,0.082,1.947,0.141l0.321,0.015  C-1348.295,1300.971-1348.107,1300.956-1347.927,1300.909z M-1289.622,1364.207c4.853-0.219,9.396-2.446,12.543-6.148  c3.91-4.307,5.826-10.063,5.276-15.854c-0.419-6.345-3.821-12.115-9.173-15.551c-1.959-1.196-4.119-2.026-6.374-2.45  c0.035-1.906-0.198-3.808-0.694-5.648c-0.096-0.491-0.426-0.903-0.884-1.105c-0.78-0.087-1.565-0.121-2.351-0.104l-3.988-0.008  c-0.566-0.01-1.125,0.132-1.617,0.411c-0.227,0.137-0.32,0.416-0.224,0.662c0.206,0.306,0.46,0.577,0.751,0.805l0.576,0.649  c1.071,1.262,1.895,2.715,2.424,4.283c-1.156,0.146-2.295,0.402-3.402,0.77c-2.735,0.927-5.191,2.532-7.141,4.665  c-3.89,4.159-5.904,9.733-5.575,15.419c0.25,7.558,4.649,14.359,11.439,17.687  C-1295.392,1363.859-1292.508,1364.381-1289.622,1364.207z M-1358.581,1363.492c2.682-0.121,5.24-1.16,7.248-2.942  c1.967-1.816,3.158-4.321,3.325-6.993c0.221-1.885-0.062-3.794-0.819-5.533c-0.799-1.773-2.182-3.217-3.92-4.091l-5.146-2.954  c-1.234-0.621-2.268-1.584-2.974-2.772c-1.081-2.154-0.366-4.777,1.659-6.086c1.352-0.776,2.867-1.222,4.425-1.297  c1.757-0.132,3.521-0.08,5.267,0.155l0.465,0.025c0.23,0.078,0.484,0.046,0.688-0.088c0.141-0.232,0.148-0.521,0.021-0.761  l-0.566-2.024c-0.279-1.166-0.487-2.349-0.624-3.54l-0.099-0.155c-0.541-0.322-1.162-0.483-1.791-0.468  c-3.369-0.255-6.748,0.352-9.818,1.765c-2.131,0.994-3.963,2.529-5.313,4.453c-1.299,1.999-1.965,4.341-1.914,6.724  c-0.105,2.988,1.221,5.848,3.57,7.696c2.167,1.286,4.383,2.486,6.645,3.599l0.836,0.473c0.9,0.511,1.666,1.229,2.232,2.094  c0.907,1.697,0.594,3.786-0.771,5.143c-0.917,0.711-2.043,1.099-3.203,1.104c-1.734,0.029-3.457-0.299-5.06-0.966l-2.671-0.982  c-0.182-0.002-0.351,0.093-0.443,0.249c-0.402,0.792-0.764,1.605-1.08,2.436l-0.458,0.869c-0.337,0.643-0.692,1.275-1.063,1.899  l0.139,0.215c1.219,0.898,2.609,1.537,4.086,1.876C-1363.404,1363.324-1360.991,1363.621-1358.581,1363.492z M-1328.295,1363.477  c2.999-0.041,6.005-0.105,9.003-0.193l2.561-0.04l1.34-0.008c0.301,0.017,0.604-0.031,0.885-0.139  c0.174-0.062,0.287-0.23,0.277-0.415l-0.307-5.325c-0.324-5.499-0.43-11.008-0.316-16.514c0.129-3.963,0.284-7.921,0.467-11.882  l0.032-1.105c0.057-1.005,0.056-2.013-0.003-3.018c-0.055-0.157-0.186-0.276-0.346-0.318c-0.974-0.027-1.947,0.014-2.915,0.121  l-0.267,0.006c-1.023-0.052-2.046-0.133-3.064-0.241l-0.313-0.008c-0.229-0.033-0.449,0.105-0.52,0.326  c-0.027,2.614,0.047,5.229,0.225,7.837l0.057,1.57c0.076,1,0.078,2.005,0.008,3.005c-0.014,0.262-0.116,0.511-0.291,0.706  c-0.389,0.16-0.811,0.225-1.229,0.187c-2.027,0.063-4.056,0.068-6.083,0.017c-0.749-0.022-1.448-0.384-1.899-0.981l-0.122-0.237  l-3.335-7.799c-0.549-1.293-1.116-2.578-1.702-3.855c-0.207-0.514-0.755-0.805-1.296-0.687c-0.804,0.035-1.608,0.082-2.411,0.141  l-0.396,0.015c-1.18-0.024-2.359-0.078-3.537-0.16l-0.193,0.014c-0.086,0.005-0.166,0.045-0.223,0.11l-0.027,0.098  c0.151,0.567,0.363,1.116,0.633,1.638c1.615,3.557,3.26,7.096,4.937,10.624l0.581,1.303c0.205,0.385,0.361,0.794,0.466,1.218  c-0.056,0.301-0.251,0.558-0.526,0.691l-0.758,0.564c-1.692,1.209-3.016,2.866-3.82,4.784c-1.039,3.212-1.134,6.653-0.271,9.918  c0.889,2.798,2.887,5.109,5.528,6.392c2.448,1.163,5.138,1.729,7.848,1.65L-1328.295,1363.477z M-1399.285,1363.522l0.579-0.052  c4.316-0.378,8.645-0.583,12.977-0.614c4.171,0.169,8.359,0.362,12.527,0.577l0.13-0.067c0.087-0.07,0.151-0.164,0.187-0.27  c0.186-0.886,0.315-1.783,0.389-2.685c0.217-0.748,0.399-1.506,0.546-2.271c0.075-0.235,0.089-0.487,0.042-0.73l-0.063-0.086  c-0.072-0.052-0.16-0.076-0.249-0.069c-3.491,0.051-6.981,0.199-10.464,0.443c-0.426-9.11-0.387-18.238,0.119-27.344l0.065-2.371  c0.054-1.037,0.052-2.077-0.007-3.115c-0.051-0.165-0.18-0.295-0.346-0.346c-1.023-0.031-2.047,0.008-3.065,0.117l-0.282,0.006  c-0.932-0.035-1.861-0.089-2.791-0.161l-0.281-0.005c-0.295-0.063-0.598,0.068-0.753,0.326c-0.084,1.41-0.081,2.824,0.009,4.234  c0.076,2.854,0.17,5.702,0.279,8.555l0.073,2.587c0.103,5.84,0.038,11.681-0.19,17.517l-9.67-0.331  c-0.133-0.03-0.273-0.006-0.387,0.07c-0.113,0.077-0.189,0.198-0.21,0.333c-0.011,0.863,0.034,1.727,0.136,2.585l-0.008,1.779  c0.021,0.311,0.009,0.622-0.035,0.931l-0.014-0.025l0.082,0.219C-1399.796,1363.46-1399.54,1363.56-1399.285,1363.522z   M-1402.81,1363.254c0.281-0.235,0.422-0.597,0.375-0.96l0.01-1.231c0.068-3.061,0.154-6.12,0.256-9.181l0.029-1.506l0.009-1.231  c-0.329-1.167-0.796-2.291-1.391-3.349c-1.13-2.299-2.296-4.577-3.499-6.837l-7.263-13.676c-0.099-0.386-0.394-0.691-0.774-0.803  h-5.564c-0.43,0.077-0.781,0.387-0.914,0.803c-2.757,5.047-5.468,10.113-8.137,15.208c-1.471,2.669-2.794,5.417-3.963,8.231  c-0.104,0.239-0.168,0.494-0.191,0.755c0.018,3.484,0.051,6.957,0.104,10.44l0.004,2.554c0.025,0.114,0.02,0.232-0.016,0.344  l0.066,0.207c0.212,0.271,0.568,0.386,0.898,0.29c0.704-0.035,1.407-0.082,2.109-0.14l0.346-0.016  c1.119,0.026,2.237,0.08,3.354,0.161l0.268-0.035c0.223-0.069,0.365-0.286,0.342-0.519c-0.074-4.101-0.166-8.199-0.275-12.299  l-0.002-0.573c0.242-1.162,0.652-2.281,1.218-3.325c2.337-4.791,4.858-9.49,7.558-14.087l1.04,1.811  c2.403,4.08,4.64,8.256,6.704,12.518c0.418,0.761,0.701,1.59,0.838,2.447c-0.039,2.969-0.18,5.937-0.418,8.896l-0.091,1.83  c-0.083,1.011-0.095,2.027-0.032,3.04c0.056,0.135,0.175,0.233,0.318,0.263c1.109,0.01,2.218-0.035,3.322-0.133l0.294,0.005  c0.712,0.034,1.423,0.081,2.132,0.141l0.354,0.015C-1403.197,1363.34-1402.996,1363.319-1402.81,1363.254z M-1291.868,1357.523  l-1.254-0.197c-2.498-0.553-4.736-1.934-6.353-3.918c-2.25-2.613-3.462-5.964-3.405-9.412c-0.104-4.853,2.275-9.423,6.31-12.12  c3.667-2.238,8.274-2.233,11.938,0.011c3.978,2.699,6.327,7.221,6.252,12.026c0.089,4.808-2.271,9.332-6.265,12.01  C-1286.802,1357.263-1289.349,1357.827-1291.868,1357.523z M-1327.437,1357.734l-1.225-0.059c-1.547-0.038-3.076-0.334-4.526-0.875  c-1.251-0.538-2.237-1.549-2.745-2.812c-0.885-2.237-0.971-4.709-0.242-7.002c0.669-1.636,2.096-2.841,3.82-3.226  c1.584-0.372,3.215-0.505,4.839-0.394c2.019-0.037,4.037,0.071,6.04,0.323l0.132,0.056c0.069,4.075,0.032,8.152-0.109,12.227  c-0.017,0.354-0.044,0.708-0.085,1.061c-0.143,0.25-0.396,0.413-0.682,0.438  C-1323.943,1357.759-1325.694,1357.847-1327.437,1357.734z M-1391.663,1426.569c4.861-0.207,9.417-2.437,12.564-6.148  c3.727-4.142,5.635-9.609,5.295-15.171c-0.172-7.24-4.184-13.842-10.531-17.33c-5.834-2.92-12.77-2.552-18.263,0.969  c-6.005,4.137-9.396,11.128-8.925,18.405c0.209,7.244,4.226,13.839,10.566,17.347  C-1398.088,1426.107-1394.878,1426.773-1391.663,1426.569z M-1295.173,1426.005c1.825-0.074,3.645-0.262,5.447-0.56  c0.225-0.081,0.371-0.301,0.357-0.54c-0.04-4.188-0.18-8.374-0.418-12.555l-0.091-2.591c-0.114-3.438-0.085-6.878,0.091-10.313  l0.254-5.749c0.141-2.185,0.18-4.373,0.121-6.561c-0.066-0.138-0.195-0.235-0.346-0.263c-1.09-0.011-2.18,0.034-3.266,0.134  l-0.267-0.006c-0.673-0.035-1.346-0.082-2.017-0.14l-0.329-0.016c-0.188-0.06-0.395-0.04-0.567,0.056  c-0.174,0.097-0.298,0.261-0.348,0.452l-0.043,0.4c0.046,6.462,0.127,12.957,0.24,19.417l0.008,2.009  c0.027,0.227-0.055,0.453-0.221,0.609l-0.229-0.194l-0.132-0.193c-3.284-7.524-6.531-15.06-9.743-22.616l-0.105-0.11  c-0.683-0.284-1.422-0.404-2.16-0.353c-0.808-0.088-1.626-0.021-2.41,0.194c-0.08,0.03-0.149,0.086-0.197,0.158  c-0.896,2.063-1.718,4.16-2.463,6.283l-2.39,5.917c-1.351,3.484-2.804,6.929-4.358,10.327c-0.08,0.145-0.257,0.204-0.408,0.139  c-0.1-0.145-0.144-0.319-0.125-0.493c0.119-6.705,0.266-13.455,0.439-20.16l0.004-0.934c0.07-0.339-0.088-0.687-0.389-0.856  c-0.907-0.071-1.818-0.041-2.719,0.089l-0.348,0.015c-1.101-0.025-2.201-0.079-3.299-0.16l-0.303,0.043  c-0.262,0.104-0.422,0.369-0.391,0.648c0.059,4.814,0.195,9.627,0.412,14.437l0.045,2.094c0.021,4.757-0.074,9.515-0.284,14.268  l-0.065,2.591c-0.076,1.423-0.08,2.85-0.008,4.273c0.053,0.161,0.183,0.286,0.346,0.332c0.75,0.052,1.501,0.086,2.252,0.104  c1.24,0.088,2.482,0.141,3.726,0.159c0.321-0.073,0.583-0.3,0.701-0.606l0.212-0.473l1.623-4.28c2.956-7.971,6.092-15.872,9.41-23.7  c0.121-0.304,0.297-0.585,0.515-0.83l0.079-0.034c0.475,0.628,0.842,1.329,1.088,2.076l1.502,3.578  c3.391,8,6.897,15.955,10.518,23.854c0.096,0.209,0.227,0.401,0.388,0.567l0.152,0.07L-1295.173,1426.005z M-1260.278,1425.587  c0.251-0.071,0.414-0.312,0.39-0.571c-0.039-4.211-0.18-8.419-0.418-12.623l-0.091-2.605c-0.118-3.89-0.089-7.782,0.086-11.67  l0.14-4.328c0.07-2.084,0.109-4.17,0.117-6.255c0.045-0.281-0.12-0.556-0.39-0.648l-0.302-0.043  c-3.678,0.044-7.381,0.099-11.058,0.164l-1.058-0.002c-3.532-0.116-7.066-0.267-10.596-0.452l-0.607-0.012  c-0.299-0.028-0.602-0.013-0.896,0.047c-0.325,0.122-0.561,0.409-0.617,0.753c-0.354,1.891-0.48,3.817-0.379,5.738  c0.047,0.131,0.156,0.229,0.291,0.263c0.514,0.041,1.029-0.004,1.527-0.133l1.102-0.171c5.205-0.424,10.43-0.59,15.651-0.497  c0.149,0.256,0.233,0.545,0.243,0.841c0.195,2.024,0.26,4.061,0.193,6.094l-0.025,3.561v4.374  c-0.119,5.643-0.266,11.267-0.439,16.909l-0.004,0.78c-0.019,0.235,0.143,0.447,0.373,0.493c0.309,0.035,0.619,0.039,0.928,0.012  l1.827-0.125c1.237-0.006,2.476,0.043,3.71,0.146L-1260.278,1425.587z M-1433.096,1425.674c1.815-0.047,3.634-0.109,5.448-0.188  l0.895-0.021c3.25-0.015,6.506,0.001,9.756,0.049l0.326-0.038c0.26-0.06,0.431-0.308,0.395-0.571l-0.178-2.873  c-0.583-8.889-0.637-17.804-0.162-26.699l0.098-2.661c0.117-1.779,0.137-3.564,0.06-5.347c-0.038-0.191-0.167-0.352-0.346-0.43  c-0.865-0.065-1.735-0.035-2.593,0.093l-0.338,0.015c-1.268-0.043-2.532-0.124-3.795-0.243l-0.23,0.028  c-0.191,0.058-0.314,0.243-0.295,0.442c0.077,2.66,0.193,5.319,0.348,7.977l0.012,0.826c0.072,0.423-0.127,0.847-0.498,1.063  c-0.422,0.106-0.859,0.128-1.289,0.063c-2.023-0.041-4.049-0.105-6.071-0.193l-1.715-0.04c-2.249-0.135-4.503,0.204-6.613,0.995  c-3.327,1.364-5.878,4.136-6.962,7.564c-1.213,3.729-1.184,7.749,0.083,11.46c1.626,4.382,5.423,7.595,10.012,8.475  C-1435.544,1425.627-1434.32,1425.712-1433.096,1425.674z M-1340.29,1425.947c0.795-0.109,1.589-0.227,2.382-0.354l0.237-0.024  c0.939-0.065,1.881-0.103,2.824-0.11l0.301-0.038c0.102-0.006,0.198-0.05,0.267-0.126c0.067-0.076,0.103-0.177,0.097-0.279  l-0.027-0.359c-0.396-7.197-0.558-14.406-0.486-21.614c0.129-3.947,0.285-7.884,0.469-11.829l0.031-1.1  c0.058-0.985,0.057-1.974-0.002-2.959c-0.063-0.144-0.193-0.247-0.347-0.277c-1.089-0.013-2.179,0.031-3.265,0.132l-0.266-0.006  c-0.674-0.035-1.346-0.082-2.018-0.14l-0.329-0.016c-0.173-0.057-0.363-0.035-0.517,0.063c-0.152,0.099-0.25,0.264-0.269,0.444  l-0.034,0.4c0.072,8.088,0.166,16.389,0.273,24.473l0.003,1.134c0.052,0.361-0.003,0.731-0.155,1.063l-0.121,0.071  c-0.769-0.872-1.498-1.777-2.188-2.713c-6.084-7.962-12.144-15.992-18.132-24.028l-0.334-0.4c-0.335-0.428-0.89-0.62-1.417-0.492  c-0.408,0.026-0.816,0.06-1.223,0.099l-0.369,0.026c-1.02,0.006-2.037-0.042-3.052-0.146l-0.304,0.057  c-0.282,0.188-0.434,0.52-0.389,0.856c0.018,5.148,0.051,10.243,0.104,15.392l0.008,2.685c-0.119,6.139-0.265,12.255-0.439,18.393  l-0.004,0.847c-0.041,0.243,0.096,0.483,0.326,0.571c1.041,0.023,2.08-0.017,3.115-0.123l0.296-0.005  c0.913,0.036,1.825,0.09,2.735,0.161l0.282,0.005c0.278-0.014,0.502-0.234,0.519-0.514c0.035-4.306-0.063-8.612-0.289-12.912  l-0.1-3.148c-0.181-3.625-0.166-7.258,0.046-10.882l0.046-0.337l0.519,0.574l0.561,0.671c6.651,8.739,13.247,17.537,19.771,26.373  l0.236,0.251C-1340.763,1425.938-1340.519,1426.012-1340.29,1425.947z M-1393.915,1419.994l-1.252-0.199  c-2.503-0.57-4.736-1.981-6.327-3.997c-2.518-3-3.717-6.891-3.324-10.788c0.301-4.364,2.591-8.349,6.211-10.806  c3.651-2.263,8.265-2.263,11.917,0c3.96,2.729,6.29,7.262,6.207,12.071c0.09,4.818-2.24,9.361-6.207,12.099  C-1388.84,1419.732-1391.393,1420.305-1393.915,1419.994z M-1433.08,1420.131l-0.94-0.122c-3.211-0.55-5.756-3.012-6.412-6.202  c-0.568-2.371-0.402-4.857,0.474-7.133c0.954-2.254,3.015-3.849,5.437-4.207c1.644-0.187,3.301-0.23,4.953-0.131  c1.777-0.025,3.555,0.07,5.32,0.285c0.264-0.012,0.508,0.143,0.609,0.388l0.004,0.654c0.023,1.623,0.063,3.246,0.117,4.868  l0.012,0.8c0.051,3.247,0.01,6.495-0.123,9.74c0.048,0.179-0.01,0.37-0.15,0.491c-0.949,0.198-1.916,0.309-2.886,0.332  c-1.802,0.156-3.608,0.249-5.417,0.277L-1433.08,1420.131z M-1394.434,1487.938c0.304-0.12,0.488-0.429,0.452-0.753  c-0.07-4.098-0.248-8.191-0.535-12.279l-0.047-1.099c-0.179-4.723-0.158-9.451,0.063-14.173c0.021-1.637,0.295-3.262,0.813-4.814  c0.601-1.571,1.616-2.95,2.938-3.992c0.286-0.258,0.573-0.513,0.865-0.765l0.229-0.263c0.126-0.229,0.05-0.515-0.173-0.65  l-0.959-0.901c-1.077-1.069-2.128-2.165-3.152-3.285l-0.207-0.076c-0.282,0.068-0.541,0.212-0.748,0.415  c-2.85,2.325-4.824,5.549-5.602,9.144c-0.615,2.908-0.899,5.877-0.848,8.85c0.01,2.371,0.027,4.719,0.053,7.09l-0.002,1.465  c-0.111,4.691-0.244,9.367-0.398,14.058l-0.01,0.806c-0.045,0.32-0.031,0.646,0.04,0.963c0.136,0.224,0.39,0.346,0.649,0.312  c0.927-0.036,1.854-0.09,2.778-0.16l0.294-0.006c0.954,0.036,1.908,0.09,2.859,0.161l0.297,0.005L-1394.434,1487.938z   M-1315.91,1488.822c5.487-0.169,10.558-2.981,13.604-7.549c1.801-2.59,2.98-5.561,3.444-8.681c0.528-3.3,0.394-6.672-0.395-9.919  c-1.224-4.935-4.319-9.199-8.632-11.893c-2.739-1.611-5.871-2.435-9.049-2.379c-3.24-0.052-6.451,0.613-9.404,1.946  c-0.928,0.433-1.818,0.938-2.665,1.514c-1.253-0.82-2.612-1.463-4.042-1.91c-0.275-0.065-0.561,0.08-0.668,0.343l-0.023,0.267  l0.15,2.045c0.414,4.982,0.503,9.986,0.265,14.979l0.036,0.387c0.019,0.286,0.26,0.506,0.545,0.499  c0.85-0.013,1.699-0.045,2.547-0.097l0.664-0.015c0.955,0.021,1.908,0.066,2.861,0.135l0.295,0.004  c0.146,0.035,0.3,0.003,0.418-0.088c0.119-0.092,0.188-0.233,0.191-0.383c-0.014-1.235-0.076-2.47-0.188-3.7l-0.615-6.791  c3.114-2.066,6.837-3.019,10.561-2.7c2.471,0.28,4.752,1.455,6.416,3.302c2.928,3.165,4.369,7.43,3.959,11.723  c-0.211,3.833-1.934,7.426-4.79,9.991c-2.78,2.433-6.68,3.126-10.128,1.801c-1.691-0.728-3.201-1.817-4.423-3.193  c-0.001,0.001-1.53-1.7-1.53-1.702l-0.271-0.291c-0.198-0.277-0.46-0.504-0.763-0.66c-0.69,0.455-1.303,1.017-1.815,1.664  c-0.914,0.888-1.726,1.876-2.417,2.945c-0.026,0.342,0.093,0.679,0.328,0.928  C-1327.902,1486.351-1322.032,1489.177-1315.91,1488.822z M-1292.884,1488.202l1.81-0.104c6.869-0.389,13.753-0.463,20.628-0.221  l0.313-0.073c0.25-0.083,0.408-0.329,0.38-0.592v-0.359l-0.355-9.966c-0.316-6.438-0.284-12.888,0.098-19.322l0.099-2.699  c0.062-1.683,0.097-3.367,0.103-5.052c0.031-0.261-0.135-0.505-0.389-0.57c-1.063-0.017-2.125,0.025-3.182,0.128l-0.322-0.008  c-0.771-0.052-1.543-0.122-2.311-0.211l-0.379-0.023c-0.184-0.065-0.389-0.056-0.564,0.03c-0.176,0.087-0.308,0.243-0.369,0.43  c-0.043,3.392,0.01,6.784,0.158,10.173l0.059,2.92c0.072,0.808,0.072,1.621,0,2.429c-0.18,0.517-0.681,0.85-1.227,0.814  c-4.17,0.1-8.341,0.059-12.508-0.123l-2.082-0.036c-0.443-0.034-0.89-0.03-1.333,0.014c-0.085-0.001-0.167,0.029-0.228,0.088  c-0.062,0.059-0.096,0.139-0.1,0.224c0.014,0.798,0.045,1.595,0.098,2.391l0.014,0.627c-0.021,0.845-0.066,1.689-0.135,2.532  l-0.004,0.264c-0.012,0.201,0.128,0.38,0.327,0.415c1.939,0.039,3.88,0.002,5.815-0.112l5.072-0.218  c1.912-0.139,3.832-0.176,5.749-0.111c0.356,0.221,0.57,0.61,0.563,1.029c0.037,0.273,0.054,0.549,0.051,0.824v6.671  c0.068,0.537-0.041,1.083-0.311,1.553c-0.208,0.219-0.518,0.311-0.811,0.239c-4.293,0.136-8.592,0.064-12.879-0.212l-1.945-0.078  c-1.033-0.073-2.07-0.083-3.105-0.029c-0.135,0.034-0.243,0.133-0.291,0.263c-0.049,0.68,0.002,1.361,0.151,2.026l0.146,0.972  c0.08,0.754,0.117,1.512,0.111,2.271l0.125,0.431c0.219,0.369,0.644,0.562,1.064,0.482L-1292.884,1488.202z M-1379.018,1488  c0.247-0.117,0.392-0.378,0.358-0.649c-0.041-4.042-0.18-8.083-0.418-12.118l-0.092-2.502c-0.113-3.467-0.083-6.938,0.092-10.401  l0.254-5.955c0.14-2.268,0.18-4.54,0.121-6.811c-0.056-0.157-0.186-0.276-0.347-0.318c-1.028-0.027-2.058,0.014-3.081,0.121  l-0.295,0.005c-0.922-0.036-1.843-0.09-2.762-0.161l-0.283-0.005c-0.294-0.063-0.598,0.068-0.752,0.327  c-0.084,1.41-0.081,2.823,0.008,4.233c0.077,2.856,0.17,5.7,0.279,8.556l0.074,2.586c0.1,3.927,0.063,7.854-0.111,11.778  l-0.148,4.409c-0.074,2.13-0.116,4.263-0.125,6.395c-0.017,0.251,0.158,0.474,0.405,0.519c1.103,0.014,2.206-0.03,3.305-0.131  l0.31,0.005c0.756,0.035,1.511,0.081,2.265,0.14l0.367,0.017C-1379.402,1488.058-1379.206,1488.045-1379.018,1488z   M-1338.23,1488.005c0.25-0.072,0.414-0.312,0.389-0.571c-0.039-4.224-0.179-8.446-0.418-12.664l-0.09-2.613  c-0.116-3.435-0.086-6.873,0.09-10.305l0.255-5.723c0.14-2.186,0.181-4.376,0.12-6.565c-0.055-0.157-0.185-0.277-0.346-0.318  c-0.997-0.028-1.994,0.013-2.985,0.121l-0.28,0.005c-0.953-0.035-1.907-0.089-2.859-0.161l-0.296-0.005  c-0.315-0.02-0.595,0.202-0.649,0.514c-0.045,3.345,0.007,6.689,0.156,10.031l0.059,2.866c0.064,0.885,0.059,1.772-0.019,2.656  c-0.031,0.474-0.435,0.835-0.909,0.814c-2.723,0.164-5.453,0.221-8.181,0.169c-3.35,0.061-6.701,0.013-10.048-0.146  c-0.558,0.093-1.086-0.28-1.187-0.838c-0.04-3.432,0.021-6.864,0.179-10.293l0.049-2.024c0.022-1.037,0.035-2.076,0.037-3.113  c0.041-0.26-0.109-0.512-0.357-0.597c-1.057-0.026-2.113,0.014-3.166,0.121l-0.297,0.005c-0.89-0.035-1.779-0.088-2.666-0.161  l-0.268-0.005c-0.31-0.064-0.627,0.081-0.779,0.358c-0.061,1.362-0.052,2.727,0.025,4.088c0.123,3.165,0.262,6.322,0.414,9.486  l0.042,1.191c0.116,3.48,0.091,6.963-0.079,10.44l-0.242,6.033c-0.094,2.209-0.146,4.42-0.156,6.631  c-0.027,0.265,0.146,0.51,0.405,0.571c1.103,0.018,2.206-0.025,3.304-0.128l0.294,0.005c0.712,0.035,1.423,0.082,2.132,0.14  l0.354,0.017c0.332,0.111,0.698-0.015,0.891-0.307l0.04-0.242c-0.073-4.231-0.172-8.467-0.295-12.697l-0.009-1.311  c-0.059-0.388,0.075-0.78,0.357-1.053c0.373-0.176,0.783-0.26,1.195-0.246c6.068-0.236,12.145-0.22,18.213,0.051  c0.401-0.017,0.759,0.258,0.848,0.649c0.043,2.117,0.002,4.235-0.122,6.35l-0.14,3.395c-0.07,1.639-0.109,3.277-0.117,4.917  c-0.016,0.225,0.138,0.426,0.358,0.468c0.304,0.034,0.61,0.037,0.915,0.01l1.828-0.124c1.237-0.006,2.475,0.042,3.709,0.146  L-1338.23,1488.005z M-1433.28,1488.146c0.714,0.063,1.433-0.007,2.12-0.205c0.25-0.097,0.45-0.289,0.555-0.535l2.768-7.419  c0.723-1.95,1.73-3.781,2.99-5.435c1.082-1.322,2.588-2.229,4.264-2.565c1.657-0.394,3.362-0.551,5.064-0.468  c0.38,0.013,0.703,0.284,0.781,0.656c0.123,1.376,0.137,2.759,0.039,4.137c-0.051,2.117-0.111,4.246-0.18,6.363l-0.048,1.92  c-0.022,0.982-0.036,1.966-0.038,2.948c-0.017,0.225,0.138,0.426,0.358,0.468c1.091,0.008,2.181-0.037,3.268-0.135l0.294,0.005  c0.717,0.035,1.434,0.081,2.149,0.14l0.348,0.017c0.351,0.112,0.733-0.026,0.931-0.338c0.06-2.3,0.02-4.601-0.12-6.897l-0.255-6.033  c-0.212-4.303-0.212-8.615,0-12.918l0.255-5.723c0.14-2.186,0.18-4.376,0.12-6.565c-0.055-0.157-0.185-0.276-0.346-0.318  c-0.996-0.028-1.994,0.013-2.985,0.121l-0.28,0.005c-0.953-0.035-1.907-0.089-2.859-0.161l-0.296-0.005  c-0.315-0.02-0.595,0.202-0.648,0.514c-0.042,3.455,0.029,6.91,0.216,10.36l0.056,2.06c0.027,1.059,0.042,2.118,0.045,3.177  c-0.048,0.256-0.239,0.459-0.491,0.523c-0.975,0.271-1.986,0.383-2.996,0.335c-0.619,0.016-1.238,0.006-1.855-0.027  c-0.596-0.073-1.138-0.382-1.506-0.856c-0.273-0.315-0.493-0.674-0.648-1.063l-1.128-2.525c-1.891-3.944-4.067-7.743-6.513-11.369  c-0.274-0.444-0.645-0.822-1.084-1.105l-0.111-0.022h-6.366c-0.405,0.005-0.736,0.327-0.753,0.731  c-0.1,0.364-0.068,0.752,0.088,1.095c1.553,2.239,3.178,4.428,4.873,6.562l0.399,0.604c2.048,3.298,3.828,6.755,5.323,10.337  c0.073,0.356-0.057,0.725-0.339,0.954l-1.527,1.501c-3.157,3.359-5.492,7.406-6.819,11.821c-0.49,1.413-0.908,2.85-1.253,4.306  c-0.038,0.147-0.018,0.304,0.06,0.436c0.076,0.132,0.202,0.227,0.349,0.267c0.845,0.27,1.731,0.383,2.616,0.335L-1433.28,1488.146z   M-1356.118,1551.238c4.801-0.126,9.301-2.367,12.293-6.121c2.387-2.895,3.922-6.395,4.439-10.11  c0.609-3.957,0.313-8.001-0.867-11.827c-1.135-3.544-3.287-6.675-6.188-9.005c-3.036-2.313-6.773-3.518-10.588-3.411  c-5.412-0.065-10.527,2.461-13.766,6.797c-0.188,0.266-0.143,0.631,0.103,0.845c0.948,1.467,2.015,2.853,3.189,4.145l0.064,0.034  c0.46-0.286,0.876-0.636,1.239-1.038l0.339-0.318c1.646-1.669,3.692-2.887,5.944-3.536c2.514-0.643,5.174-0.383,7.516,0.733  c2.15,1.158,3.849,3.005,4.822,5.245c1.214,2.785,1.719,5.828,1.469,8.856c-0.096,2.876-1.023,5.664-2.672,8.023  c-1.668,2.37-4.305,3.878-7.193,4.115c-3.257,0.408-6.523-0.699-8.859-3.004c-0.381-0.359-0.754-0.725-1.122-1.097l-0.286-0.275  c-0.289-0.344-0.664-0.607-1.086-0.764c-0.346,0.231-0.631,0.541-0.834,0.903c-0.938,1.258-1.735,2.614-2.381,4.044  c-0.025,0.415,0.127,0.82,0.42,1.115c2.479,3.061,6.059,5.026,9.971,5.476C-1358.816,1551.244-1357.465,1551.303-1356.118,1551.238z   M-1412.703,1550.365c0.265-0.07,0.435-0.326,0.395-0.597l-0.028-0.388c-0.406-6.701-0.611-13.412-0.615-20.126  c0.181-4.711,0.388-9.413,0.623-14.122l0.027-1.019c0.013-0.581,0.02-1.163,0.021-1.745c0.04-0.343-0.18-0.664-0.514-0.752  c-1.242-0.066-2.485-0.068-3.727-0.007l-5.528,0.135c-4.323,0.15-8.653,0.037-12.964-0.338l-1.266-0.166  c-0.384-0.112-0.795-0.09-1.166,0.063c-0.125,0.091-0.213,0.224-0.249,0.374c-0.162,0.964-0.292,1.934-0.388,2.906  c-0.236,0.751-0.408,1.521-0.512,2.302c-0.112,0.337,0.008,0.708,0.297,0.915l0.242,0.022l5.32-0.378  c3.592-0.324,7.201-0.411,10.804-0.261c0.595,0.007,1.175,0.181,1.677,0.5c0.443,0.479,0.711,1.093,0.761,1.743  c0.089,0.614,0.13,1.234,0.124,1.855l0.008,5.793c-0.006,0.148,0,0.297,0.014,0.444l0.007-0.009l-0.142,0.478  c-0.223,0.42-0.656,0.683-1.132,0.686c-5.038,0.244-10.087,0.162-15.114-0.247l-0.111-0.003c-0.291-0.063-0.596,0.045-0.778,0.28  c-0.069,0.7-0.126,1.401-0.169,2.103c-0.162,1.184-0.262,2.375-0.298,3.569c-0.019,0.107,0.004,0.219,0.065,0.31  c0.061,0.091,0.155,0.153,0.262,0.179c1.119-0.069,2.24-0.146,3.357-0.229l0.883-0.038c3.874-0.138,7.75-0.212,11.627-0.222  c0.473-0.061,0.945,0.121,1.256,0.483c0.247,0.488,0.338,1.042,0.262,1.584c0.058,1.991,0.047,3.983-0.033,5.973  c0.021,0.685-0.175,1.358-0.558,1.926c-0.532,0.386-1.177,0.586-1.835,0.57c-2.354,0.063-4.708,0.008-7.057-0.163l-3.393-0.177  c-1.717-0.127-3.438-0.163-5.158-0.107c-0.149,0.048-0.264,0.168-0.305,0.318c-0.039,0.827,0.023,1.655,0.188,2.467  c0.065,0.855,0.2,1.705,0.401,2.539c0.199,0.395,0.617,0.632,1.059,0.603c3.456-0.015,6.91-0.082,10.364-0.202l1.042-0.007  c3.514,0.041,7.024,0.112,10.537,0.215l1.09,0.006L-1412.703,1550.365z M-1286.781,1551.087c0.701-0.065,1.398-0.151,2.094-0.257  l0.346-0.028c1.033,0.026,2.064,0.112,3.088,0.259l0.294,0.009c0.271-0.094,0.477-0.314,0.55-0.592l0.492-1.324  c1.982-5.081,4.02-10.144,6.109-15.181l0.876-2.226l6.782-18.547l0.17-0.44c0.167-0.296,0.231-0.639,0.184-0.975  c-0.121-0.161-0.319-0.244-0.52-0.219h-6.229c-0.249,0.116-0.439,0.328-0.529,0.588c-0.623,1.479-1.119,3.01-1.479,4.574  l-0.275,0.853c-0.217,0.77-0.576,1.493-1.059,2.131c-0.178,0.216-0.448,0.331-0.727,0.312c-4.9,0.091-9.801,0.086-14.7-0.014  c-0.382-0.07-0.718-0.296-0.929-0.623c-0.697-1.12-1.211-2.344-1.521-3.626l-0.295-0.982c-0.248-1.05-0.678-2.048-1.27-2.949  c-0.163-0.222-0.443-0.322-0.711-0.257c-0.734,0.035-1.469,0.082-2.201,0.14l-0.362,0.017c-1.124-0.025-2.247-0.079-3.368-0.162  l-0.291,0.021c-0.091-0.008-0.183,0.019-0.252,0.077c-0.07,0.058-0.113,0.144-0.121,0.234l0.072,0.221l2.279,5.938l10.958,28.057  c0.511,1.326,1.038,2.646,1.583,3.957c0.115,0.355,0.305,0.684,0.555,0.961C-1287.068,1551.114-1286.917,1551.135-1286.781,1551.087  z M-1374.384,1550.369c0.253-0.056,0.426-0.288,0.405-0.546c-0.118-6.146-0.266-12.323-0.439-18.469l-0.003-0.854  c0.057-4.82,0.193-9.64,0.411-14.456l0.044-2.085c0.009-0.567,0.014-1.134,0.015-1.701c0.045-0.281-0.12-0.556-0.39-0.648  c-1.816-0.051-3.633-0.013-5.445,0.115l-1.061,0.035c-2.645,0.054-5.289,0.004-7.928-0.15l-1.557-0.036  c-5.147-0.315-10.105,2.009-13.156,6.166c-2.583,3.32-4.103,7.343-4.36,11.542c-0.461,5.127,0.926,10.25,3.91,14.444  c2.177,2.943,5.351,4.995,8.927,5.771c3.412,0.768,6.913,1.067,10.406,0.892l3.256-0.038c2.025-0.004,4.05,0.014,6.074,0.052  l0.576,0.001L-1374.384,1550.369z M-1306.198,1550.367c0.25-0.072,0.414-0.312,0.39-0.571c-0.04-4.225-0.18-8.446-0.418-12.664  l-0.091-2.613c-0.115-3.435-0.086-6.873,0.091-10.305l0.254-5.723c0.14-2.186,0.18-4.376,0.12-6.565  c-0.055-0.158-0.184-0.278-0.346-0.318c-2.47-0.015-4.938,0.044-7.404,0.174l-0.732,0.007c-3.399-0.044-6.787-0.099-10.188-0.164  l-0.47-0.002c-3.414-0.044-6.616,1.658-8.488,4.513c-1.98,2.85-2.672,6.397-1.907,9.782c0.531,2.007,1.701,3.787,3.333,5.069  c0.437,0.307,0.887,0.592,1.351,0.854l0.252,0.169c0.094,0.051,0.165,0.135,0.2,0.235c-0.198,0.301-0.476,0.541-0.803,0.692  l-0.76,0.589c-1.827,1.683-2.917,4.017-3.032,6.498c-0.041,1.664,0.32,3.313,1.051,4.81c1.096,2,2.887,3.531,5.033,4.301  c2.367,0.868,4.877,1.28,7.396,1.215l14.865,0.055L-1306.198,1550.367z M-1384.16,1544.883l-0.038-0.011  c-1.355-0.043-2.709-0.053-4.064-0.031l-1.444-0.062c-4.856-0.315-9.04-3.542-10.577-8.16c-1.462-4.475-1.067-9.347,1.096-13.527  c0.854-1.605,2.043-3.008,3.486-4.113c1.485-1.061,3.246-1.67,5.068-1.754c0.733-0.064,1.469-0.096,2.205-0.094l3.68-0.011  l0.395-0.011l-0.033-0.006l0.779,0.055c0.718,0.028,1.424,0.197,2.076,0.499c0.271,0.111,0.454,0.371,0.467,0.664l0.014,1.874  c0.039,2.435,0.086,4.864,0.143,7.298l0.031,2.268c-0.021,4.733-0.101,9.457-0.238,14.188c-0.283,0.399-0.727,0.656-1.215,0.702  c-0.649,0.138-1.31,0.22-1.973,0.245L-1384.16,1544.883z M-1320.683,1529.133l-0.91-0.036c-1.385-0.027-2.756-0.272-4.064-0.727  c-1.917-0.671-3.152-2.541-3.018-4.567c-0.073-1.404,0.27-2.8,0.984-4.01c0.774-1.132,1.967-1.909,3.314-2.163  c2.02-0.413,4.084-0.559,6.142-0.435c1.655-0.048,3.313,0.054,4.952,0.303c0.18-0.006,0.35,0.087,0.442,0.242l0.014,1.28  l0.083,3.578c0.025,1.933,0.031,3.865,0.014,5.799l-0.027,0.091c-0.379,0.277-0.838,0.425-1.309,0.42  C-1316.264,1529.126-1318.474,1529.201-1320.683,1529.133z M-1284.11,1541.965l-0.315-0.685c-1.96-4.447-3.703-8.987-5.223-13.604  c-0.108-0.216-0.121-0.468-0.031-0.692c0.09-0.224,0.273-0.397,0.5-0.479c1.1-0.348,2.252-0.494,3.402-0.433  c1.833-0.03,3.666-0.023,5.498,0.021c0.662-0.019,1.315,0.161,1.874,0.517c0.295,0.238,0.381,0.651,0.206,0.987  c-1.322,3.867-2.756,7.695-4.297,11.481l-1.344,3.437L-1284.11,1541.965z M-1318.702,1545.465l-1.07-0.037  c-1.584-0.02-3.156-0.273-4.666-0.753c-1.9-0.633-3.248-2.329-3.434-4.323c-0.201-1.054-0.023-2.145,0.5-3.08  c0.691-1.018,1.727-1.752,2.916-2.066c2.241-0.602,4.566-0.83,6.881-0.678c1.479-0.051,2.959,0.097,4.399,0.439  c0.188,0.03,0.342,0.167,0.392,0.352l0.015,1.37l0.038,2.227c-0.032,1.957-0.087,3.915-0.164,5.87  c-0.128,0.248-0.375,0.407-0.654,0.422C-1315.253,1545.475-1316.98,1545.561-1318.702,1545.465z"
   id="path241"
   style="fill:#000000;opacity:1;stroke:#000000;stroke-opacity:1;stroke-width:1.88976378;stroke-dasharray:none" />
<path
   id="circle243"
   style="opacity:1;stroke:#000000;stroke-width:1.88976"
   d="m -1288.508,1702.0229 a 7.086,7.086 0 0 1 -7.086,7.086 7.086,7.086 0 0 1 -7.086,-7.086 7.086,7.086 0 0 1 7.086,-7.086 7.086,7.086 0 0 1 7.086,7.086 z" />
<path
   fill="none"
   stroke="#000000"
   stroke-width="0.1417"
   d="m -1349.9117,1710.1236 c 2.734,-3.194 5.309,-6.294 7.982,-9.305 16.031,-18.051 41.68,-20.44 59.582,-5.039 12.489,10.744 17.793,24.967 17.186,41.32 -0.47,12.623 -5.686,23.629 -12.354,34.057 -11.729,18.342 -27.429,32.869 -44.558,45.939 -7.669,5.852 -15.773,11.135 -23.702,16.643 -2.322,1.611 -4.806,1.813 -7.248,0.277 -22.718,-14.287 -43.77,-30.545 -60.697,-51.631 -8.049,-10.025 -15.332,-20.539 -18.596,-33.213 -5.262,-20.438 -0.666,-38.426 14.711,-52.977 14.236,-13.471 37.509,-14.008 53.316,-1.805 2.75,2.123 5.271,4.603 7.616,7.173 2.348,2.572 4.342,5.463 6.762,8.561 z"
   id="path245"
   style="opacity:1;fill:#000000;stroke:#000000;stroke-width:1.88976;stroke-dasharray:none;stroke-opacity:1" />



































<g
   id="path317"><path
     style="color:#000000;fill:#000000;stroke-width:1.88976;-inkscape-stroke:none"
     d="m -1213.07,1460.075 v -8.506 m 164.764,-149.883 h -8.5 m -195.592,87.159 h 8.502 m 195.591,0 v 31.891 m -45.71,39.334 v -8.506 m 37.209,-180.713 h -37.207 m 45.707,62.724 h -8.5 m 0,117.989 h -37.207 m -87.164,-189.219 h -31.891 m 156.262,71.23 v 55.27 m -156.262,-117.994 h -30.828 m 117.987,-8.505 v 8.507 m 69.103,-10e-4 v 30.828 m -187.091,149.883 v -30.828 m 62.72,39.336 h -31.891 m 156.262,-39.333 v 30.828 m 8.501,-62.72 h -8.501 m -37.209,-126.5 v 8.507 m -158.383,149.881 h 8.502 m 117.989,-149.883 h -55.27 m -31.891,180.713 h -30.828 m 149.883,-189.219 h -31.895 m 77.603,39.336 v 31.895 m 0,87.161 -8.501,-10e-4 m -69.101,30.828 h -55.27 m -71.221,-117.993 v -31.891 m 126.489,158.39 v -8.506 m -126.489,-30.829 v -31.895 m 8.501,-87.159 v -30.828 m -8.501,30.826 8.502,10e-4 m 149.883,158.391 h -31.895 m -55.271,-197.725 v 8.507 m 0,189.217 v -8.506 m -31.891,-189.218 v 8.507 m -30.827,117.988 v -55.27 m -8.501,-10e-4 h 8.502"
     id="path3948" /><path
     style="color:#000000;fill:#000000;-inkscape-stroke:none"
     d="m -1213.0684,1261.4004 v 0.9453 h -0.9472 v 7.5606 h -29.8809 v 0.9472 h -0.9453 v 29.8809 h -7.5566 v 0.9453 h -0.9454 v 31.8906 h 0.9454 v 0.9453 h 7.5566 v 53.3848 h -7.5566 v 0.9394 h -0.9454 v 31.8946 h 0.9454 v 0.9453 h 7.5566 v 29.8828 h 0.9453 v 0.9473 h 29.8809 v 7.5644 h 0.9472 v 0.9414 h 31.8907 v -0.9453 h 0.9433 v -7.5605 h 53.3809 v 7.5605 h 0.9453 v 0.9453 h 31.8945 v -0.9453 h 0.9434 v -7.5605 h 36.2637 v -0.9434 h 0.9453 v -29.8848 h 7.5566 v -0.9453 h 0.9453 v -31.8906 h -0.9453 v -0.9453 h -7.5566 v -53.3809 h 7.5547 v -0.9433 h 0.9472 v -31.8946 h -0.9472 v -0.9414 h -7.5547 v -29.8886 h -0.9453 v -0.9453 h -36.2637 v -7.5606 h -0.9434 v -0.9453 h -31.8945 v 0.9453 h -0.9453 v 7.5606 h -53.3809 v -7.5606 h -0.9433 v -0.9453 z m 0.9434,1.8887 h 30.002 v 7.5644 h 0.9453 v 0.9414 h 55.2714 v -0.9414 h 0.9415 v -7.5644 h 30.0058 v 7.5644 h 0.9453 v 0.9414 h 36.2637 v 29.8848 h 0.9434 v 0.9512 h 7.5566 v 30 h -7.5566 v 0.9433 h -0.9434 v 55.2715 h 0.9434 v 0.9453 h 7.5566 v 30.002 l -7.5566,-0 v 0.9473 h -0.9434 v 29.8808 h -36.2637 v 0.9454 h -0.9453 v 7.5625 h -30.0058 v -7.5625 h -0.9415 v -0.9454 h -55.2714 v 0.9454 h -0.9453 v 7.5625 h -30.002 v -7.5586 h -0.9434 v -0.9493 h -29.8828 v -29.8847 h -0.9453 v -0.9453 h -7.5566 v -30 h 7.5566 v -0.9473 h 0.9453 v -55.2715 h -0.9453 v -0.9453 h -7.5566 v -30.002 l 7.5566,0 v -0.9434 h 0.9453 v -29.8867 h 29.8828 v -0.9414 h 0.9434 z"
     id="path3950" /></g>

























































<path
   style="color:#000000;fill:#000000;stroke-width:1.88976;-inkscape-stroke:none"
   d="m -1082.3973,1843.1001 2.706,1.825 m 3.306,0.668 h 20.147 m 0,0 h 0.825 m 7.68,-55.359 h -8.504 m -124.372,-60.588 h -31.891 m 137.753,107.881 1.88,1.266 m 6.478,-1.266 1.262,-1.878 m -9.62,-6.48 -1.266,1.878 m -167.31,-72.702 v 31.89 m -8.504,37.201 h 166.938 m -166.937,-37.202 v 37.202 m 158.382,-97.79 v -8.507 m 27.055,108.03 -1.879,-1.266 m -8.207,6.021 0.463,1.726 m -8.877,-8.214 v 9.655 m 14.896,-9.655 h -0.572 m 14.326,-37.202 v -31.89 m -8.422,74.427 -0.467,-1.725 m 0.467,2.878 v -0.58 m 16.927,-74.999 v -37.205 m -28.278,114.509 1.266,1.878 m -50.592,-107.881 v -8.507 m 49.326,109.908 -0.463,1.725 m -166.848,-74.427 h -8.504 m 180.684,69.091 -1.724,0.467 m 16.63,-69.558 h 8.504 m -20.535,80.448 1.879,-1.266 m -4.176,1.729 h 0.572 m -14.896,-2.164 v 0.827 m -166.937,-116.78 v 37.205 m 175.351,75 v 0.58 m -8.414,3.995 0.667,2.475 m -9.222,-110.748 h -31.895 m 55.346,109.61 1.725,-0.463 m 20.534,-0.874 v -0.827 m -132.874,-107.446 v -8.507 m 107.741,106.764 -1.88,1.266 m 10.086,4.175 v -0.572 m -0.466,2.877 0.467,-1.726 m -3.608,-6.02 -1.725,-0.467 m 22.262,-106.296 h -45.711 m -149.881,69.094 h -8.504 m 181.262,37.202 h -0.578 m -141.355,-106.296 h -39.329 m 204.093,115.952 v -46.857 m -0.672,50.158 0.672,-2.475 m -17.393,-6.871 -1.262,-1.878 m -6.478,9.624 1.724,0.463 m -54.195,-118.117 h -55.271 m 109.466,118.117 h 0.578 m -141.934,-109.61 v -8.507 m 136.024,111.632 v 0.572 m 21.062,12.25 2.476,-0.667 m -31.285,-4.533 1.825,2.707 m 2.706,1.826 2.477,0.667 m 26.985,-2.493 1.823,-2.707 m -28.808,5.2 h 0.829 m 23.448,-0.667 2.708,-1.825"
   id="path3960" />
























































<g
   id="path547"><path
     style="color:#000000;fill:#000000;stroke-width:1.88976;-inkscape-stroke:none"
     d="m -1213.072,1694.801 v 8.507 m 164.094,-119.253 0.672,2.475 m -37.156,-10e-4 0.668,-2.475 m -41.117,110.747 v 8.507 m 0,0 h -55.27 m 95.719,-106.296 v -9.655 m 5.199,-7.836 2.477,-0.666 m 20.976,87.249 h 8.504 m -195.591,-10e-4 v -31.89 m -8.504,0 v -37.201 m 166.939,0 H -1252.4 m 158.383,97.789 h -31.895 m 77.606,8.507 h -45.711 m 0,-8.507 v 8.507 m 37.206,-69.095 v 31.891 m -187.085,-31.89 h -8.504 m 204.094,-46.858 v 46.856 m -132.875,60.589 v 8.507 m 98.211,-121.96 2.707,-1.826 m 23.453,-0.667 h 0.824 m -29.476,8.501 v -0.827 m -127.61,116.779 h -39.328 m 204.094,-116.779 v 0.827 m -36.488,-3.301 1.824,-2.707 m 6.012,-2.493 h 20.148 m 6.008,2.493 1.824,2.707 m -132.203,110.746 h -31.891 m 164.766,-28.697 v 37.204 m 0,-69.095 h -8.504 m -20.976,-55.358 h 0.828 m 23.449,0.666 2.707,1.826 m -201.599,121.961 v -37.205 m 196.415,-87.248 2.477,0.666 m -190.387,86.583 h -8.504"
     id="path3936" /><path
     style="color:#000000;fill:#000000;-inkscape-stroke:none"
     d="m -1077.7852,1577.9102 v 0.9492 l -0.2461,-0.916 -2.4765,0.666 0.2461,0.9121 -0.5293,-0.7832 -2.707,1.8262 0.5292,0.7851 -0.7851,-0.5293 -1.8242,2.707 0.7851,0.5274 -0.914,-0.2461 -0.668,2.4746 0.9141,0.2461 h -0.9454 v 0.8262 h 1.8887 v -0.6953 l 0.5957,-2.209 1.6348,-2.4258 2.4219,-1.6328 2.2011,-0.5918 h 0.7071 20.1465 0.7031 l 2.2011,0.5918 2.4219,1.6328 1.6348,2.4258 0.5996,2.2109 v 0.6934 45.9121 h -7.5605 v 0.9453 h -0.9454 v 31.8906 h 0.9454 v 0.9453 h 7.5605 v 35.3145 h -43.8223 v -7.5625 h -0.9453 v -0.9453 h -31.8945 v 0.9453 h -0.9434 v 7.5625 h -53.3808 v -7.5625 h -0.9453 v -0.9453 h -31.8907 v 0.9453 h -0.9453 v 7.5625 h -37.4394 v -35.3145 h 7.5605 v -0.9453 h 0.9453 v -31.8906 h -0.9453 v -0.9434 h -7.5605 v -35.3125 h 165.9941 v -0.9453 h 0.9453 v -9.6543 h -1.8887 v 8.709 h -165.9941 v 0.9453 h -0.9453 v 37.2012 h 0.9453 v 0.9453 h 7.5586 v 30 h -7.5586 v 0.9453 h -0.9453 v 37.2051 h 0.9453 v 0.9434 h 39.3281 v -0.9434 h 0.9453 v -7.5625 h 30.002 v 7.5625 h 0.9434 v 0.9434 h 55.2714 v -0.9434 h 0.9434 v -7.5625 h 30.0059 v 7.5625 h 0.9433 v 0.9434 h 45.711 v -0.9434 h 0.9453 v -37.2051 h -0.9453 v -0.9453 h -7.5586 v -30 h 7.5586 v -0.9453 h 0.9453 v -46.8574 -0.8262 h -0.9414 l 0.9082,-0.2461 -0.6719,-2.4766 -0.9121,0.2481 0.7832,-0.5274 -1.8223,-2.707 -0.7851,0.5293 0.5293,-0.7851 -2.7071,-1.8262 -0.5273,0.7832 0.2441,-0.9121 -2.4765,-0.666 -0.2461,0.916 v -0.9492 h -0.8242 -20.1465 z"
     id="path3938" /></g>
<path
   id="path549"
   style="fill:#000000;opacity:1;stroke:#000000;stroke-opacity:1;stroke-width:1.88976378;stroke-dasharray:none"
   d="m -1070.565,1597.012 h -0.573 m 5.439,-3.611 -1.262,1.878 m -6.478,1.266 -1.88,-1.266 m 3.604,-10.087 h 0.577 m 0,0 h 0.573 m 5.333,6.484 -0.468,1.726 m -3.141,3.143 -1.724,0.467 m 4.866,-8.213 0.468,1.725 m -1.73,4.755 -1.88,1.266 m -7.744,-3.144 -0.462,-1.726 m 3.608,-6.02 1.724,-0.463 m 4.754,1.729 1.262,1.878 m -11.348,1.724 0.462,-1.725 m 11.353,1.725 v 0.58 m 0,10e-4 v 0.572 m -10.087,3.603 -1.267,-1.878 m 10e-4,-4.602 1.267,-1.878 m -10e-4,0 1.88,-1.266 m 2.874,-0.463 1.724,0.463 m -2.297,11.357 h -0.577 m 0,0 -1.724,-0.467 m 4.598,-10.89 1.88,1.266 m -10.086,4.183 v -0.58 m 0,1.152 v -0.572" />


































<path
   id="path619"
   style="fill:#000000;opacity:1;stroke:#000000;stroke-opacity:1;stroke-width:1.88976378;stroke-dasharray:none"
   d="m -1143.3,1576.688 h -7.721 m 0,7.719 h 7.721 m 0,0 v -7.72 m -7.721,0 v 7.72" />




<g
   id="path629"><path
     style="color:#000000;fill:#000000;stroke-width:1.88976;-inkscape-stroke:none"
     d="m -1126.575,1587.039 0.672,-2.475 m 38.269,-111.383 h -31.895 m -14.054,119.057 2.48,-0.666 M -1174.8,1473.18 v -8.501 m -62.718,106.3 h 69.099 m 0,13.585 0.668,2.475 m 119.448,-53.266 v -31.891 m -111.612,90.356 h 25.508 m 6.007,-2.492 1.824,-2.707 m 69.768,-16.06 v -37.205 m -111.611,49.96 v 0.83 m 5.199,7.008 2.477,0.666 m 112.44,-90.355 -8.505,10e-4 m -149.881,-37.205 h -30.829 m 10e-4,106.3 v -37.205 m -8.505,-10e-4 h 8.505 m 117.988,-69.094 h -55.27 m 7.048,122.36 1.824,2.707 m 117.624,-55.973 h -8.505 m -111.611,37.206 v 12.756 m 48.888,-110.555 v -8.501 m 31.895,8.501 v -8.501 m -87.162,8.501 h -31.891 m 75.586,118.392 2.703,-1.826 m -109.117,-87.862 v -37.205 m -8.505,37.204 8.505,10e-4 m 76.774,90.354 h 0.828 m -86.107,-58.465 v -31.891 m 189.214,0 v -37.205 m 0,0 h -30.828 m -38.27,119.054 v -12.756 m -8.503,21.26 h 0.824 m -32.344,-2.492 2.707,1.826 m 37.316,-7.008 v -0.83 m 0,-12.755 h 69.098 m -149.885,-97.799 10e-4,-8.501"
     id="path3942" /><path
     style="color:#000000;fill:#000000;-inkscape-stroke:none"
     d="m -1087.6367,1463.7324 v 0.9473 h -0.9434 v 7.5566 h -30.0058 v -7.5566 h -0.9434 v -0.9453 h -55.2695 v 0.9453 h -0.9453 v 7.5547 h -30.0039 v -7.5567 h -0.9415 v -0.9433 h -30.8281 v 0.9453 h -0.9433 v 36.2598 l -7.5606,-0 v 0.9453 h -0.9453 v 31.8906 h 0.9453 v 0.9454 h 7.5606 v 36.2597 h 0.9433 v 0.9453 h 68.1543 v 11.8106 0.8301 h 0.9453 l -0.914,0.246 0.6679,2.4747 0.9141,-0.2461 -0.7852,0.5273 1.8243,2.707 0.7773,-0.5234 -0.5234,0.7773 2.707,1.8262 0.5332,-0.789 -0.248,0.9199 2.4765,0.666 0.2461,-0.916 v 0.9492 h 0.8281 25.5078 v -0 h 0.8204 v -0.955 l 0.248,0.9238 2.4805,-0.666 -0.2442,-0.9102 0.5274,0.7813 2.7031,-1.8262 -0.5293,-0.7832 0.7832,0.5273 1.8242,-2.707 -0.7832,-0.5273 0.9121,0.248 0.6739,-2.4746 -0.92,-0.25 h 0.9493 v -0.8301 -11.8105 h 68.1523 v -0.9434 h 0.9453 v -36.2597 h 7.5606 v -0.9454 h 0.9453 v -31.8906 h -0.9453 v -0.9453 l -7.5606,0 v -36.2618 h -0.9453 v -0.9453 z m -148.9356,1.8906 h 28.9356 l -0,7.5547 h 0.9492 v 0.9473 h 31.8907 v -0.9453 h 0.9433 v -7.5567 h 53.3789 v 7.5567 h 0.9473 v 0.9453 h 31.8945 v -0.9453 h 0.9434 v -7.5567 h 28.9394 v 36.2598 h 0.9434 v 0.9453 h 7.5606 v 30 h -7.5606 v 0.9453 h -0.9434 v 36.2579 h -68.1543 v 0.9453 h -0.9453 v 12.7558 0.7207 l -0.5937,2.1856 -1.6348,2.4258 -2.4238,1.6386 -2.1934,0.5879 h -0.7109 v 0 h -25.5059 -0.707 l -2.1992,-0.5918 -2.4258,-1.6367 -1.6328,-2.4219 -0.5957,-2.209 v -0.6992 -12.7559 h -0.9453 v -0.9453 h -68.1524 v -36.2598 h -0.9453 v -0.9453 h -7.5586 v -30 h 7.5586 v -0.9433 h 0.9453 z"
     id="path3944" /></g>
<path
   d="M 0,0"
   id="path5478"
   style="fill:none;stroke:#000000;stroke-opacity:1;stroke-width:0.5;stroke-dasharray:none"
   inkscape:original-d="M 0,0"
   inkscape:path-effect="#path-effect5476"
   class="UnoptimicedTransforms" /><path
   d="M 0,0"
   id="path5507"
   inkscape:original-d="M 0,0"
   inkscape:path-effect="#path-effect5505"
   class="UnoptimicedTransforms" /><path
   id="path3957"
   style="color:#000000;fill:#000000;-inkscape-stroke:none"
   sodipodi:type="inkscape:offset"
   inkscape:radius="0"
   inkscape:original="M -1180.6094 1720.1934 C -1180.6084 1720.5095 -1180.6084 1720.8246 -1180.6094 1721.1387 C -1180.9229 1721.1397 -1181.2372 1721.1397 -1181.5527 1721.1387 C -1181.5517 1723.6605 -1181.5517 1726.1814 -1181.5527 1728.7012 C -1191.5523 1728.7022 -1201.5531 1728.7022 -1211.5547 1728.7012 C -1211.5537 1726.1814 -1211.5537 1723.6605 -1211.5547 1721.1387 C -1211.8682 1721.1397 -1212.1825 1721.1397 -1212.498 1721.1387 C -1212.497 1720.8252 -1212.497 1720.5108 -1212.498 1720.1953 C -1225.607 1720.1963 -1238.7171 1720.1963 -1251.8281 1720.1953 C -1251.8271 1720.5108 -1251.8271 1720.8252 -1251.8281 1721.1387 C -1252.1416 1721.1397 -1252.456 1721.1397 -1252.7715 1721.1387 C -1252.7705 1733.5414 -1252.7705 1745.9431 -1252.7715 1758.3438 C -1252.456 1758.3447 -1252.1416 1758.3448 -1251.8281 1758.3438 C -1251.8271 1758.6599 -1251.8271 1758.975 -1251.8281 1759.2891 C -1249.3069 1759.2901 -1246.7868 1759.2901 -1244.2676 1759.2891 C -1244.2666 1769.2901 -1244.2666 1779.2901 -1244.2676 1789.2891 C -1246.7868 1789.2901 -1249.3069 1789.2901 -1251.8281 1789.2891 C -1251.8271 1789.6052 -1251.8271 1789.9203 -1251.8281 1790.2344 C -1252.1416 1790.2354 -1252.456 1790.2354 -1252.7715 1790.2344 C -1252.7705 1802.6358 -1252.7705 1815.0361 -1252.7715 1827.4355 C -1252.456 1827.4365 -1252.1416 1827.4365 -1251.8281 1827.4355 C -1251.8271 1827.7516 -1251.8271 1828.0668 -1251.8281 1828.3809 C -1196.4957 1828.3819 -1141.1644 1828.3819 -1085.834 1828.3809 C -1085.833 1831.2855 -1085.833 1834.1892 -1085.834 1837.0918 C -1085.833 1837.3688 -1085.833 1837.6449 -1085.834 1837.9199 C -1085.5192 1837.9209 -1085.2054 1837.9209 -1084.8926 1837.9199 C -1085.1943 1838.0019 -1085.4971 1838.0837 -1085.8008 1838.1641 C -1085.5778 1838.9906 -1085.3558 1839.8161 -1085.1348 1840.6406 C -1084.8304 1840.5596 -1084.527 1840.4775 -1084.2246 1840.3945 C -1084.484 1840.5713 -1084.7445 1840.7471 -1085.0059 1840.9219 C -1084.3968 1841.8252 -1083.7887 1842.7276 -1083.1816 1843.6289 C -1082.9195 1843.4541 -1082.6585 1843.2784 -1082.3984 1843.1016 C -1082.5732 1843.363 -1082.749 1843.6234 -1082.9258 1843.8828 C -1082.0225 1844.4925 -1081.1201 1845.1013 -1080.2188 1845.709 C -1080.042 1845.4496 -1079.8662 1845.1891 -1079.6914 1844.9277 C -1079.7724 1845.2321 -1079.8545 1845.5355 -1079.9375 1845.8379 C -1079.111 1846.0616 -1078.2854 1846.2842 -1077.4609 1846.5059 C -1077.3779 1846.2029 -1077.2958 1845.8988 -1077.2148 1845.5938 C -1077.2138 1845.9091 -1077.2138 1846.2237 -1077.2148 1846.5371 C -1076.9371 1846.5381 -1076.6605 1846.5381 -1076.3848 1846.5371 C -1069.6683 1846.5381 -1062.9528 1846.5381 -1056.2383 1846.5371 C -1055.9626 1846.5381 -1055.6878 1846.5381 -1055.4141 1846.5371 C -1055.4131 1846.2223 -1055.4131 1845.9066 -1055.4141 1845.5898 C -1055.3311 1845.8962 -1055.249 1846.2015 -1055.168 1846.5059 C -1054.3415 1846.2842 -1053.5159 1846.0616 -1052.6914 1845.8379 C -1052.7724 1845.5349 -1052.8545 1845.2308 -1052.9375 1844.9258 C -1052.7607 1845.1879 -1052.585 1845.4489 -1052.4102 1845.709 C -1051.5062 1845.1019 -1050.6032 1844.4939 -1049.7012 1843.8848 C -1049.8773 1843.6234 -1050.0543 1843.3611 -1050.2324 1843.0977 C -1049.969 1843.2751 -1049.7067 1843.4516 -1049.4453 1843.627 C -1048.8369 1842.7256 -1048.2294 1841.8233 -1047.623 1840.9199 C -1047.8824 1840.7458 -1048.1429 1840.5706 -1048.4043 1840.3945 C -1048.0999 1840.4775 -1047.7965 1840.5596 -1047.4941 1840.6406 C -1047.2691 1839.8167 -1047.0453 1838.9919 -1046.8223 1838.166 C -1047.1227 1838.085 -1047.4242 1838.0029 -1047.7266 1837.9199 C -1047.4131 1837.9209 -1047.1006 1837.9209 -1046.7891 1837.9199 C -1046.7881 1837.6449 -1046.7881 1837.3688 -1046.7891 1837.0918 C -1046.7881 1821.4737 -1046.7881 1805.8545 -1046.7891 1790.2344 C -1047.1025 1790.2354 -1047.417 1790.2354 -1047.7324 1790.2344 C -1047.7314 1789.9203 -1047.7314 1789.6052 -1047.7324 1789.2891 C -1050.2522 1789.2901 -1052.7731 1789.2901 -1055.2949 1789.2891 C -1055.2939 1779.2901 -1055.2939 1769.2901 -1055.2949 1759.2891 C -1052.7731 1759.2901 -1050.2522 1759.2901 -1047.7324 1759.2891 C -1047.7314 1758.9756 -1047.7314 1758.6612 -1047.7324 1758.3457 C -1047.417 1758.3467 -1047.1025 1758.3467 -1046.7891 1758.3457 C -1046.7881 1745.945 -1046.7881 1733.5433 -1046.7891 1721.1406 C -1047.1019 1721.1416 -1047.4157 1721.1416 -1047.7305 1721.1406 C -1047.7295 1720.8265 -1047.7295 1720.5114 -1047.7305 1720.1953 C -1062.9665 1720.1963 -1078.2034 1720.1963 -1093.4414 1720.1953 C -1093.4404 1720.5108 -1093.4404 1720.8252 -1093.4414 1721.1387 C -1093.7562 1721.1397 -1094.0719 1721.1397 -1094.3887 1721.1387 C -1094.3877 1723.6605 -1094.3877 1726.1814 -1094.3887 1728.7012 C -1104.389 1728.7022 -1114.3903 1728.7022 -1124.3926 1728.7012 C -1124.3916 1726.1814 -1124.3916 1723.6605 -1124.3926 1721.1387 C -1124.7067 1721.1397 -1125.0218 1721.1397 -1125.3379 1721.1387 L -1125.3379 1720.1934 C -1143.7607 1720.1944 -1162.1846 1720.1944 -1180.6094 1720.1934 z M -1179.6641 1722.084 C -1161.8695 1722.085 -1144.0758 1722.085 -1126.2832 1722.084 C -1126.2822 1724.6058 -1126.2822 1727.1267 -1126.2832 1729.6465 C -1125.9678 1729.6475 -1125.6532 1729.6475 -1125.3398 1729.6465 C -1125.3388 1729.9626 -1125.3388 1730.2777 -1125.3398 1730.5918 C -1114.7066 1730.5928 -1104.0746 1730.5928 -1093.4434 1730.5918 C -1093.4424 1730.2777 -1093.4424 1729.9626 -1093.4434 1729.6465 C -1093.1279 1729.6475 -1092.8135 1729.6475 -1092.5 1729.6465 L -1092.5 1722.0859 C -1077.8922 1722.0869 -1063.2855 1722.0869 -1048.6797 1722.0859 C -1048.6787 1733.8584 -1048.6787 1745.6299 -1048.6797 1757.4004 C -1051.1976 1757.4014 -1053.7164 1757.4014 -1056.2363 1757.4004 L -1056.2363 1758.3438 C -1056.551 1758.3447 -1056.8669 1758.3448 -1057.1836 1758.3438 C -1057.1826 1768.975 -1057.1826 1779.6052 -1057.1836 1790.2344 C -1056.8669 1790.2354 -1056.551 1790.2354 -1056.2363 1790.2344 L -1056.2363 1791.1797 C -1053.7164 1791.1807 -1051.1976 1791.1807 -1048.6797 1791.1797 C -1048.6787 1806.4847 -1048.6787 1821.7888 -1048.6797 1837.0918 C -1048.6787 1837.3265 -1048.6787 1837.5603 -1048.6797 1837.793 C -1048.8779 1838.5284 -1049.0771 1839.2627 -1049.2773 1839.9961 C -1049.8212 1840.8063 -1050.3662 1841.6156 -1050.9121 1842.4238 C -1051.7184 1842.9684 -1052.5257 1843.5121 -1053.334 1844.0547 C -1054.0667 1844.2536 -1054.8005 1844.4515 -1055.5352 1844.6484 C -1055.7686 1844.6494 -1056.0029 1844.6494 -1056.2383 1844.6484 C -1062.9528 1844.6494 -1069.6683 1844.6494 -1076.3848 1844.6484 C -1076.6195 1844.6494 -1076.8551 1844.6494 -1077.0918 1844.6484 C -1077.8239 1844.4515 -1078.5569 1844.2536 -1079.291 1844.0547 C -1080.0986 1843.5108 -1080.9072 1842.9658 -1081.7168 1842.4199 C -1082.2607 1841.613 -1082.8057 1840.805 -1083.3516 1839.9961 C -1083.5485 1839.2614 -1083.7464 1838.5258 -1083.9453 1837.7891 C -1083.9443 1837.5577 -1083.9443 1837.3252 -1083.9453 1837.0918 C -1083.9443 1833.874 -1083.9443 1830.6553 -1083.9453 1827.4355 C -1084.2588 1827.4365 -1084.5732 1827.4365 -1084.8887 1827.4355 C -1084.8877 1827.1221 -1084.8877 1826.8076 -1084.8887 1826.4922 C -1140.2184 1826.4932 -1195.5492 1826.4932 -1250.8809 1826.4922 C -1250.8799 1814.7224 -1250.8799 1802.9515 -1250.8809 1791.1797 C -1248.361 1791.1807 -1245.8421 1791.1807 -1243.3242 1791.1797 C -1243.3232 1790.8656 -1243.3232 1790.5505 -1243.3242 1790.2344 C -1243.0081 1790.2354 -1242.693 1790.2354 -1242.3789 1790.2344 C -1242.3779 1779.6058 -1242.3779 1768.9763 -1242.3789 1758.3457 C -1242.693 1758.3467 -1243.0081 1758.3467 -1243.3242 1758.3457 C -1243.3232 1758.0316 -1243.3232 1757.7165 -1243.3242 1757.4004 C -1245.8421 1757.4014 -1248.361 1757.4014 -1250.8809 1757.4004 C -1250.8799 1745.6299 -1250.8799 1733.8584 -1250.8809 1722.0859 C -1238.4007 1722.0869 -1225.9216 1722.0869 -1213.4434 1722.0859 C -1213.4424 1724.6071 -1213.4424 1727.1273 -1213.4434 1729.6465 C -1213.1279 1729.6475 -1212.8135 1729.6475 -1212.5 1729.6465 L -1212.5 1730.5918 C -1201.8688 1730.5928 -1191.2386 1730.5928 -1180.6094 1730.5918 C -1180.6084 1730.2777 -1180.6084 1729.9626 -1180.6094 1729.6465 C -1180.2933 1729.6475 -1179.9782 1729.6475 -1179.6641 1729.6465 C -1179.6631 1727.1267 -1179.6631 1724.6058 -1179.6641 1722.084 z M -1071.1426 1826.4922 C -1071.1416 1826.809 -1071.1416 1827.1247 -1071.1426 1827.4395 C -1071.2246 1827.1351 -1071.3069 1826.8298 -1071.3906 1826.5234 C -1071.9645 1826.68 -1072.5393 1826.8356 -1073.1152 1826.9902 C -1073.0322 1827.2952 -1072.9501 1827.5993 -1072.8691 1827.9023 C -1073.0432 1827.6422 -1073.2184 1827.3812 -1073.3945 1827.1191 C -1074.0204 1827.542 -1074.6475 1827.9639 -1075.2754 1828.3848 C -1075.098 1828.6469 -1074.9215 1828.9079 -1074.7461 1829.168 C -1075.0068 1828.9932 -1075.2686 1828.8174 -1075.5312 1828.6406 C -1075.9522 1829.2679 -1076.374 1829.8942 -1076.7969 1830.5195 C -1076.5348 1830.6963 -1076.2738 1830.8721 -1076.0137 1831.0469 C -1076.3167 1830.9669 -1076.6208 1830.8851 -1076.9258 1830.8027 C -1077.0791 1831.3786 -1077.2334 1831.9534 -1077.3887 1832.5273 C -1077.0843 1832.6093 -1076.7809 1832.6911 -1076.4785 1832.7715 C -1076.7913 1832.7725 -1077.1051 1832.7725 -1077.4199 1832.7715 C -1077.4189 1832.9633 -1077.4189 1833.154 -1077.4199 1833.3438 C -1077.4189 1833.5381 -1077.4189 1833.7315 -1077.4199 1833.9238 C -1077.1045 1833.9248 -1076.79 1833.9248 -1076.4766 1833.9238 C -1076.7796 1834.0058 -1077.0837 1834.0876 -1077.3887 1834.168 C -1077.2334 1834.7445 -1077.0791 1835.32 -1076.9258 1835.8945 C -1076.6208 1835.8145 -1076.3167 1835.7328 -1076.0137 1835.6504 C -1076.2731 1835.8272 -1076.5335 1836.0029 -1076.7949 1836.1777 C -1076.372 1836.8044 -1075.9502 1837.43 -1075.5293 1838.0547 C -1075.2672 1837.8799 -1075.0062 1837.7041 -1074.7461 1837.5273 C -1074.9215 1837.7894 -1075.098 1838.0504 -1075.2754 1838.3105 C -1074.6475 1838.7334 -1074.0204 1839.1553 -1073.3945 1839.5762 C -1073.2184 1839.3168 -1073.0432 1839.0563 -1072.8691 1838.7949 C -1072.9491 1839.0993 -1073.0309 1839.4027 -1073.1133 1839.7051 C -1072.5374 1839.8604 -1071.9626 1840.0147 -1071.3887 1840.168 C -1071.3057 1839.8637 -1071.2236 1839.5583 -1071.1426 1839.252 C -1071.1416 1839.5694 -1071.1416 1839.8858 -1071.1426 1840.2012 C -1070.9489 1840.2022 -1070.7562 1840.2022 -1070.5645 1840.2012 C -1070.3734 1840.2022 -1070.1832 1840.2022 -1069.9941 1840.2012 C -1069.9931 1839.8858 -1069.9931 1839.5694 -1069.9941 1839.252 C -1069.9111 1839.5583 -1069.829 1839.8637 -1069.748 1840.168 C -1069.1721 1840.0147 -1068.5973 1839.8604 -1068.0234 1839.7051 C -1068.1044 1839.4021 -1068.1865 1839.098 -1068.2695 1838.793 C -1068.0921 1839.0551 -1067.9156 1839.3161 -1067.7402 1839.5762 C -1067.1129 1839.1553 -1066.4866 1838.7334 -1065.8613 1838.3105 C -1066.0367 1838.0504 -1066.2132 1837.7894 -1066.3906 1837.5273 C -1066.1279 1837.7041 -1065.8662 1837.8799 -1065.6055 1838.0547 C -1065.1839 1837.4294 -1064.7633 1836.8031 -1064.3438 1836.1758 C -1064.6045 1836.001 -1064.8662 1835.8252 -1065.1289 1835.6484 C -1064.8232 1835.7324 -1064.5185 1835.8148 -1064.2148 1835.8965 C -1064.0582 1835.322 -1063.9026 1834.7464 -1063.748 1834.1699 C -1064.0497 1834.0889 -1064.3525 1834.0068 -1064.6562 1833.9238 C -1064.342 1833.9248 -1064.029 1833.9248 -1063.7168 1833.9238 C -1063.7158 1833.7315 -1063.7158 1833.5381 -1063.7168 1833.3438 C -1063.7158 1833.1539 -1063.7158 1832.9633 -1063.7168 1832.7715 C -1064.0322 1832.7725 -1064.3486 1832.7725 -1064.666 1832.7715 C -1064.3597 1832.6895 -1064.0543 1832.6071 -1063.75 1832.5234 C -1063.9046 1831.9495 -1064.0602 1831.3747 -1064.2168 1830.7988 C -1064.5185 1830.8818 -1064.8213 1830.9639 -1065.125 1831.0449 C -1064.8636 1830.8708 -1064.6031 1830.6956 -1064.3438 1830.5195 C -1064.7633 1829.8949 -1065.1839 1829.2692 -1065.6055 1828.6426 C -1065.8662 1828.8187 -1066.1279 1828.9939 -1066.3906 1829.168 C -1066.2132 1828.9079 -1066.0367 1828.6469 -1065.8613 1828.3848 C -1066.4866 1827.9639 -1067.1129 1827.542 -1067.7402 1827.1191 C -1067.9156 1827.3818 -1068.0921 1827.6436 -1068.2695 1827.9043 C -1068.1855 1827.6006 -1068.1032 1827.2959 -1068.0215 1826.9902 C -1068.5954 1826.8356 -1069.1702 1826.68 -1069.7461 1826.5234 C -1069.8281 1826.8298 -1069.9104 1827.1351 -1069.9941 1827.4395 C -1069.9931 1827.1247 -1069.9931 1826.809 -1069.9941 1826.4922 C -1070.1832 1826.4932 -1070.3734 1826.4932 -1070.5645 1826.4922 C -1070.7562 1826.4932 -1070.9489 1826.4932 -1071.1426 1826.4922 z M -1071.0195 1828.3809 C -1070.8668 1828.3819 -1070.7152 1828.3819 -1070.5645 1828.3809 C -1070.4144 1828.3819 -1070.2653 1828.3819 -1070.1172 1828.3809 C -1069.6338 1828.5127 -1069.1513 1828.6436 -1068.6699 1828.7734 C -1068.1351 1829.1338 -1067.6012 1829.4932 -1067.0684 1829.8516 C -1066.7113 1830.3832 -1066.3551 1830.9138 -1066 1831.4434 C -1065.8675 1831.9307 -1065.736 1832.417 -1065.6055 1832.9023 C -1065.6045 1833.0505 -1065.6045 1833.1975 -1065.6055 1833.3438 C -1065.6045 1833.4965 -1065.6045 1833.6481 -1065.6055 1833.7988 C -1065.7354 1834.2842 -1065.8661 1834.7686 -1065.998 1835.252 C -1066.3544 1835.7849 -1066.7119 1836.3168 -1067.0703 1836.8477 C -1067.6012 1837.2068 -1068.1331 1837.5648 -1068.666 1837.9219 C -1069.1481 1838.0524 -1069.6311 1838.182 -1070.1152 1838.3105 C -1070.2639 1838.3115 -1070.4138 1838.3115 -1070.5645 1838.3105 C -1070.7158 1838.3115 -1070.8682 1838.3115 -1071.0215 1838.3105 C -1071.5036 1838.182 -1071.9866 1838.0524 -1072.4707 1837.9219 C -1073.001 1837.5648 -1073.5322 1837.2068 -1074.0645 1836.8477 C -1074.4222 1836.3161 -1074.7809 1835.7836 -1075.1406 1835.25 C -1075.2698 1834.7666 -1075.4 1834.2823 -1075.5312 1833.7969 C -1075.5303 1833.6469 -1075.5303 1833.4958 -1075.5312 1833.3438 C -1075.5303 1833.197 -1075.5303 1833.0492 -1075.5312 1832.9004 C -1075.3993 1832.4151 -1075.2686 1831.9287 -1075.1387 1831.4414 C -1074.7803 1830.9118 -1074.4228 1830.3812 -1074.0664 1829.8496 C -1073.5322 1829.4919 -1072.999 1829.1331 -1072.4668 1828.7734 C -1071.9834 1828.6436 -1071.5009 1828.5127 -1071.0195 1828.3809 z "
   d="m -1180.6094,1720.1934 c 10e-4,0.3161 10e-4,0.6312 0,0.9453 -0.3135,10e-4 -0.6278,10e-4 -0.9433,0 10e-4,2.5218 10e-4,5.0427 0,7.5625 -9.9996,10e-4 -20.0004,10e-4 -30.002,0 10e-4,-2.5198 10e-4,-5.0407 0,-7.5625 -0.3135,10e-4 -0.6278,10e-4 -0.9433,0 10e-4,-0.3135 10e-4,-0.6279 0,-0.9434 -13.109,10e-4 -26.2191,10e-4 -39.3301,0 10e-4,0.3155 10e-4,0.6299 0,0.9434 -0.3135,10e-4 -0.6279,10e-4 -0.9434,0 10e-4,12.4027 10e-4,24.8044 0,37.2051 0.3155,9e-4 0.6299,10e-4 0.9434,0 10e-4,0.3161 10e-4,0.6312 0,0.9453 2.5212,10e-4 5.0413,10e-4 7.5605,0 10e-4,10.001 10e-4,20.001 0,30 -2.5192,10e-4 -5.0393,10e-4 -7.5605,0 10e-4,0.3161 10e-4,0.6312 0,0.9453 -0.3135,10e-4 -0.6279,10e-4 -0.9434,0 10e-4,12.4014 10e-4,24.8017 0,37.2011 0.3155,10e-4 0.6299,10e-4 0.9434,0 10e-4,0.3161 10e-4,0.6313 0,0.9454 55.3324,10e-4 110.6637,10e-4 165.9941,0 10e-4,2.9046 10e-4,5.8083 0,8.7109 10e-4,0.277 10e-4,0.5531 0,0.8281 0.3148,10e-4 0.6286,10e-4 0.9414,0 -0.3017,0.082 -0.6045,0.1638 -0.9082,0.2442 0.223,0.8265 0.445,1.652 0.666,2.4765 0.3044,-0.081 0.6078,-0.1631 0.9102,-0.2461 -0.2594,0.1768 -0.5199,0.3526 -0.7813,0.5274 0.6091,0.9033 1.2172,1.8057 1.8243,2.707 0.2621,-0.1748 0.5231,-0.3505 0.7832,-0.5273 -0.1748,0.2614 -0.3506,0.5218 -0.5274,0.7812 0.9033,0.6097 1.8057,1.2185 2.707,1.8262 0.1768,-0.2594 0.3526,-0.5199 0.5274,-0.7813 -0.081,0.3044 -0.1631,0.6078 -0.2461,0.9102 0.8265,0.2237 1.6521,0.4463 2.4766,0.668 0.083,-0.303 0.1651,-0.6071 0.2461,-0.9121 10e-4,0.3153 10e-4,0.6299 0,0.9433 0.2777,10e-4 0.5543,10e-4 0.83,0 6.7165,10e-4 13.432,10e-4 20.1465,0 0.2757,10e-4 0.5505,10e-4 0.8242,0 10e-4,-0.3148 10e-4,-0.6305 0,-0.9473 0.083,0.3064 0.1651,0.6117 0.2461,0.9161 0.8265,-0.2217 1.6521,-0.4443 2.4766,-0.668 -0.081,-0.303 -0.1631,-0.6071 -0.2461,-0.9121 0.1768,0.2621 0.3525,0.5231 0.5273,0.7832 0.904,-0.6071 1.807,-1.2151 2.709,-1.8242 -0.1761,-0.2614 -0.3531,-0.5237 -0.5312,-0.7871 0.2634,0.1774 0.5257,0.3539 0.7871,0.5293 0.6084,-0.9014 1.2159,-1.8037 1.8223,-2.7071 -0.2594,-0.1741 -0.5199,-0.3493 -0.7813,-0.5254 0.3044,0.083 0.6078,0.1651 0.9102,0.2461 0.225,-0.8239 0.4488,-1.6487 0.6718,-2.4746 -0.3004,-0.081 -0.6019,-0.1631 -0.9043,-0.2461 0.3135,10e-4 0.626,10e-4 0.9375,0 10e-4,-0.275 10e-4,-0.5511 0,-0.8281 10e-4,-15.6181 10e-4,-31.2373 0,-46.8574 -0.3134,10e-4 -0.6279,10e-4 -0.9433,0 0,-0.3141 0,-0.6292 0,-0.9453 -2.5198,10e-4 -5.0407,10e-4 -7.5625,0 0,-9.999 0,-19.999 0,-30 2.5218,10e-4 5.0427,10e-4 7.5625,0 0,-0.3135 0,-0.6279 0,-0.9434 0.3154,10e-4 0.6299,10e-4 0.9433,0 10e-4,-12.4007 10e-4,-24.8024 0,-37.2051 -0.3128,10e-4 -0.6266,10e-4 -0.9414,0 10e-4,-0.3141 10e-4,-0.6292 0,-0.9453 -15.236,10e-4 -30.4729,10e-4 -45.7109,0 10e-4,0.3155 10e-4,0.6299 0,0.9434 -0.3148,10e-4 -0.6305,10e-4 -0.9473,0 10e-4,2.5218 10e-4,5.0427 0,7.5625 -10.0003,10e-4 -20.0016,10e-4 -30.0039,0 10e-4,-2.5198 10e-4,-5.0407 0,-7.5625 -0.3141,10e-4 -0.6292,10e-4 -0.9453,0 v -0.9453 c -18.4228,10e-4 -36.8467,10e-4 -55.2715,0 z m 0.9453,1.8906 c 17.7946,10e-4 35.5883,10e-4 53.3809,0 10e-4,2.5218 10e-4,5.0427 0,7.5625 0.3154,10e-4 0.63,10e-4 0.9434,0 10e-4,0.3161 10e-4,0.6312 0,0.9453 10.6332,10e-4 21.2652,10e-4 31.8964,0 0,-0.3141 0,-0.6292 0,-0.9453 0.3155,10e-4 0.6299,10e-4 0.9434,0 v -7.5606 c 14.6078,10e-4 29.2145,10e-4 43.8203,0 10e-4,11.7725 10e-4,23.544 0,35.3145 -2.5179,10e-4 -5.0367,10e-4 -7.5566,0 v 0.9434 c -0.3147,9e-4 -0.6306,10e-4 -0.9473,0 10e-4,10.6312 10e-4,21.2614 0,31.8906 0.3167,10e-4 0.6326,10e-4 0.9473,0 v 0.9453 c 2.5199,10e-4 5.0387,10e-4 7.5566,0 10e-4,15.305 10e-4,30.6091 0,45.9121 10e-4,0.2347 10e-4,0.4685 0,0.7012 -0.1982,0.7354 -0.3974,1.4697 -0.5976,2.2031 -0.5439,0.8102 -1.0889,1.6195 -1.6348,2.4277 -0.8063,0.5446 -1.6136,1.0883 -2.4219,1.6309 -0.7327,0.1989 -1.4665,0.3968 -2.2012,0.5937 -0.2334,10e-4 -0.4677,10e-4 -0.7031,0 -6.7145,10e-4 -13.43,10e-4 -20.1465,0 -0.2347,10e-4 -0.4703,10e-4 -0.707,0 -0.7321,-0.1969 -1.4651,-0.3948 -2.1992,-0.5937 -0.8076,-0.5439 -1.6162,-1.0889 -2.4258,-1.6348 -0.5439,-0.8069 -1.0889,-1.6149 -1.6348,-2.4238 -0.1969,-0.7347 -0.3948,-1.4703 -0.5937,-2.207 10e-4,-0.2314 10e-4,-0.4639 0,-0.6973 10e-4,-3.2178 10e-4,-6.4365 0,-9.6563 -0.3135,10e-4 -0.6279,10e-4 -0.9434,0 10e-4,-0.3134 10e-4,-0.6279 0,-0.9433 -55.3297,10e-4 -110.6605,10e-4 -165.9922,0 0,-11.7698 0,-23.5407 0,-35.3125 2.5199,10e-4 5.0388,10e-4 7.5567,0 10e-4,-0.3141 10e-4,-0.6292 0,-0.9453 0.3161,10e-4 0.6312,10e-4 0.9453,0 10e-4,-10.6286 10e-4,-21.2581 0,-31.8887 -0.3141,10e-4 -0.6292,10e-4 -0.9453,0 10e-4,-0.3141 10e-4,-0.6292 0,-0.9453 -2.5179,10e-4 -5.0368,10e-4 -7.5567,0 0,-11.7705 0,-23.542 0,-35.3145 12.4802,10e-4 24.9593,10e-4 37.4375,0 0,2.5212 0,5.0414 0,7.5606 0.3155,10e-4 0.6299,10e-4 0.9434,0 v 0.9453 c 10.6312,10e-4 21.2614,10e-4 31.8906,0 10e-4,-0.3141 10e-4,-0.6292 0,-0.9453 0.3161,10e-4 0.6312,10e-4 0.9453,0 10e-4,-2.5198 10e-4,-5.0407 0,-7.5625 z m 108.5215,104.4082 c 10e-4,0.3168 10e-4,0.6325 0,0.9473 -0.082,-0.3044 -0.1643,-0.6097 -0.248,-0.9161 -0.5739,0.1566 -1.1487,0.3122 -1.7246,0.4668 0.083,0.305 0.1651,0.6091 0.2461,0.9121 -0.1741,-0.2601 -0.3493,-0.5211 -0.5254,-0.7832 -0.6259,0.4229 -1.253,0.8448 -1.8809,1.2657 0.1774,0.2621 0.3539,0.5231 0.5293,0.7832 -0.2607,-0.1748 -0.5225,-0.3506 -0.7851,-0.5274 -0.421,0.6273 -0.8428,1.2536 -1.2657,1.8789 0.2621,0.1768 0.5231,0.3526 0.7832,0.5274 -0.303,-0.08 -0.6071,-0.1618 -0.9121,-0.2442 -0.1533,0.5759 -0.3076,1.1507 -0.4629,1.7246 0.3044,0.082 0.6078,0.1638 0.9102,0.2442 -0.3128,10e-4 -0.6266,10e-4 -0.9414,0 0,0.1918 0,0.3825 0,0.5723 0,0.1943 0,0.3877 0,0.58 0.3154,10e-4 0.6299,10e-4 0.9433,0 -0.303,0.082 -0.6071,0.1638 -0.9121,0.2442 0.1553,0.5765 0.3096,1.152 0.4629,1.7265 0.305,-0.08 0.6091,-0.1617 0.9121,-0.2441 -0.2594,0.1768 -0.5198,0.3525 -0.7812,0.5273 0.4229,0.6267 0.8447,1.2523 1.2656,1.877 0.2621,-0.1748 0.5231,-0.3506 0.7832,-0.5274 -0.1754,0.2621 -0.3519,0.5231 -0.5293,0.7832 0.6279,0.4229 1.255,0.8448 1.8809,1.2657 0.1761,-0.2594 0.3513,-0.5199 0.5254,-0.7813 -0.08,0.3044 -0.1618,0.6078 -0.2442,0.9102 0.5759,0.1553 1.1507,0.3096 1.7246,0.4629 0.083,-0.3043 0.1651,-0.6097 0.2461,-0.916 10e-4,0.3174 10e-4,0.6338 0,0.9492 0.1937,10e-4 0.3864,10e-4 0.5781,0 0.1911,10e-4 0.3813,10e-4 0.5704,0 10e-4,-0.3154 10e-4,-0.6318 0,-0.9492 0.083,0.3063 0.1651,0.6117 0.2461,0.916 0.5759,-0.1533 1.1507,-0.3076 1.7246,-0.4629 -0.081,-0.303 -0.1631,-0.6071 -0.2461,-0.9121 0.1774,0.2621 0.3539,0.5231 0.5293,0.7832 0.6273,-0.4209 1.2536,-0.8428 1.8789,-1.2657 -0.1754,-0.2601 -0.3519,-0.5211 -0.5293,-0.7832 0.2627,0.1768 0.5244,0.3526 0.7851,0.5274 0.4216,-0.6253 0.8422,-1.2516 1.2617,-1.8789 -0.2607,-0.1748 -0.5224,-0.3506 -0.7851,-0.5274 0.3057,0.084 0.6104,0.1664 0.9141,0.2481 0.1566,-0.5745 0.3122,-1.1501 0.4668,-1.7266 -0.3017,-0.081 -0.6045,-0.1631 -0.9082,-0.2461 0.3142,10e-4 0.6272,10e-4 0.9394,0 10e-4,-0.1923 10e-4,-0.3857 0,-0.58 10e-4,-0.1899 10e-4,-0.3805 0,-0.5723 -0.3154,10e-4 -0.6318,10e-4 -0.9492,0 0.3063,-0.082 0.6117,-0.1644 0.916,-0.2481 -0.1546,-0.5739 -0.3102,-1.1487 -0.4668,-1.7246 -0.3017,0.083 -0.6045,0.1651 -0.9082,0.2461 0.2614,-0.1741 0.5219,-0.3493 0.7812,-0.5254 -0.4195,-0.6246 -0.8401,-1.2503 -1.2617,-1.8769 -0.2607,0.1761 -0.5224,0.3513 -0.7851,0.5254 0.1774,-0.2601 0.3539,-0.5211 0.5293,-0.7832 -0.6253,-0.4209 -1.2516,-0.8428 -1.8789,-1.2657 -0.1754,0.2627 -0.3519,0.5245 -0.5293,0.7852 0.084,-0.3037 0.1663,-0.6084 0.248,-0.9141 -0.5739,-0.1546 -1.1487,-0.3102 -1.7246,-0.4668 -0.082,0.3064 -0.1643,0.6117 -0.248,0.9161 10e-4,-0.3148 10e-4,-0.6305 0,-0.9473 -0.1891,10e-4 -0.3793,10e-4 -0.5704,0 -0.1917,10e-4 -0.3844,10e-4 -0.5781,0 z m 0.1231,1.8887 c 0.1527,10e-4 0.3043,10e-4 0.455,0 0.1501,10e-4 0.2992,10e-4 0.4473,0 0.4834,0.1318 0.9659,0.2627 1.4473,0.3925 0.5348,0.3604 1.0687,0.7198 1.6015,1.0782 0.3571,0.5316 0.7133,1.0622 1.0684,1.5918 0.1325,0.4873 0.264,0.9736 0.3945,1.4589 10e-4,0.1482 10e-4,0.2952 0,0.4415 10e-4,0.1527 10e-4,0.3043 0,0.455 -0.1299,0.4854 -0.2606,0.9698 -0.3925,1.4532 -0.3564,0.5329 -0.7139,1.0648 -1.0723,1.5957 -0.5309,0.3591 -1.0628,0.7171 -1.5957,1.0742 -0.4821,0.1305 -0.9651,0.2601 -1.4492,0.3886 -0.1487,10e-4 -0.2986,10e-4 -0.4493,0 -0.1513,10e-4 -0.3037,10e-4 -0.457,0 -0.4821,-0.1285 -0.9651,-0.2581 -1.4492,-0.3886 -0.5303,-0.3571 -1.0615,-0.7151 -1.5938,-1.0742 -0.3577,-0.5316 -0.7164,-1.0641 -1.0761,-1.5977 -0.1292,-0.4834 -0.2594,-0.9677 -0.3906,-1.4531 9e-4,-0.15 9e-4,-0.3011 0,-0.4531 9e-4,-0.1468 9e-4,-0.2946 0,-0.4434 0.1319,-0.4853 0.2626,-0.9717 0.3925,-1.459 0.3584,-0.5296 0.7159,-1.0602 1.0723,-1.5918 0.5342,-0.3577 1.0674,-0.7165 1.5996,-1.0762 0.4834,-0.1298 0.9659,-0.2607 1.4473,-0.3925 z"
   class="UnoptimicedTransforms" /></svg>
